<?xml version="1.0" encoding="utf-8"?>
<!-- Generator: Adobe Illustrator 22.0.1, SVG Export Plug-In . SVG Version: 6.00 Build 0)  -->
<svg version="1.1" id="Layer_1" xmlns="http://www.w3.org/2000/svg" xmlns:xlink="http://www.w3.org/1999/xlink" x="0px" y="0px"
	 viewBox="0 0 1000 500" style="enable-background:new 0 0 1000 500;" xml:space="preserve">
<style type="text/css">
	.st0{display:none;}
	.st1{display:inline;}
	.st2{fill:#FEFEFE;}
	.st3{fill:#2C97DD;}
	.st4{fill:#2D97DD;}
	.st5{fill:#2E97DD;}
	.st6{fill:#2F98DE;}
	.st7{fill:#FDFDFE;}
	.st8{fill:#FCFDFE;}
	.st9{fill:#FFFFFF;}
</style>
<g id="Layer_1_1_" class="st0">
	<g id="iVNLBL.tif" class="st1">
		<g>
			<path class="st2" d="M750.6,243.7c0,10.5,0,20.9,0,31.4c0,1.1-0.2,1.4-1.4,1.4c-89,0-178,0-267,0c-57.9,0-115.7,0-173.6,0
				c-1.4,0-1.5-0.4-1.5-1.6c0-39.1,0-78.2,0-117.3c0-1.2,0.3-1.4,1.4-1.4c12.1,0,24.2,0,36.3,0c-3.6,1-6.2,3.2-8.1,6.5
				c-8.9,15.7-17.9,31.3-27,46.8c-2.7,4.6-2.7,8.8,0,13.3c9.2,15.8,18.3,31.6,27.4,47.5c2.3,3.9,5.6,5.9,10.1,5.9
				c18.6,0,37.2,0,55.8,0c4.5,0,7.9-1.9,10.1-5.9c9.1-15.8,18.2-31.7,27.4-47.5c2.7-4.6,2.7-8.8,0-13.3
				c-8.9-15.2-17.7-30.4-26.4-45.7c-2.1-3.7-4.6-6.5-8.8-7.6c114.6,0,229.2,0,343.8,0c1.2,0,1.4,0.3,1.4,1.4c0,19,0,38,0,57.1
				c-0.4-0.3-0.3-0.7-0.3-1.1c-0.8-4.4-2.3-8.4-6.6-10.5c-5-2.5-14.2-2.4-19.1,4.7c-0.3,0.4-0.5,1-1.1,1.3c0-1.8,0-3.5,0-5.2
				c0-0.8-0.2-1.2-1.1-1.2c-2.4,0.1-4.7,0.1-7.1,0c-0.9,0-1.1,0.3-1.1,1.2c0,12.9,0,25.9,0,38.8c0,1,0.4,1.2,1.3,1.2c2-0.1,4,0,6,0
				c2.3,0,2,0.3,2-1.9c0-7.2,0-14.3,0-21.5c0-3.3,0.9-6.2,3.4-8.5c2.5-2.4,5.5-3.1,8.9-2.2c3.1,0.8,4.5,3.2,5.2,6.2
				c0.4,1.6,0.5,3.1,0.5,4.7c0,7.3,0,14.5,0,21.8c0,1.1,0.2,1.5,1.4,1.5C745.4,243.6,748,243.7,750.6,243.7z M569.7,208.9
				c0-2-0.1-3.6,0-5.2c0.1-1-0.3-1.2-1.2-1.2c-2.3,0.1-4.5,0.1-6.8,0c-1,0-1.3,0.3-1.3,1.3c0.1,3,0,6.1,0,9.1c0,9.7,0,19.4,0,29.1
				c0,1.4,0.4,1.7,1.7,1.7c2-0.1,4-0.1,6,0c1.3,0.1,1.6-0.4,1.6-1.6c-0.1-7.3-0.1-14.6,0-22c0-3.5,1-6.6,3.6-9.1
				c3.2-3,10.4-2.7,12.2,3c0.6,1.8,0.8,3.7,0.8,5.6c0,7.5,0,15,0,22.6c0,1.2,0.3,1.5,1.5,1.5c2.1-0.1,4.1-0.1,6.2,0
				c1.4,0.1,1.7-0.4,1.7-1.7c-0.1-7.4,0-14.7,0-22.1c0-3.3,1.1-6.2,3.5-8.5c4.2-4.2,11.1-2.3,12.6,3.3c0.5,1.8,0.7,3.7,0.7,5.7
				c0,7.3,0,14.6,0,22c0,1.1,0.3,1.4,1.4,1.4c2.2-0.1,4.3-0.1,6.5,0c1.1,0,1.5-0.3,1.5-1.4c-0.1-8.3,0-16.6,0-24.9
				c0-2-0.2-3.9-0.7-5.8c-1-4.4-3.2-7.9-7.7-9.2c-6.2-1.8-13.5-0.6-17.9,6c-0.2,0.4-0.4,0.8-0.8,1
				C590.6,199.2,575.6,199,569.7,208.9z M496,223.6c0.4,0.8,0.7,1.3,1,1.8c3,5.7,6,11.4,8.9,17.1c0.5,0.9,1,1.3,2,1.2
				c2.8-0.1,5.7,0,8.5,0c1.6,0,1.6,0,0.8-1.5c-4.6-7.8-9.1-15.5-13.7-23.3c-0.6-1.1-0.7-1.8,0-2.9c4.5-7.6,9-15.1,13.4-22.7
				c0.3-0.5,0.7-0.9,0.6-1.5c-3.1,0-6.1,0.1-9.2,0c-1.1,0-1.5,0.4-2,1.3c-2.9,5.6-5.8,11.1-8.8,16.7c-0.3,0.5-0.4,1.1-1,1.4
				c-0.3-0.5-0.5-1-0.8-1.5c-2.7-5.5-5.4-10.9-8-16.4c-0.5-1.1-1.2-1.5-2.3-1.4c-2.7,0.1-5.4,0-8,0c-0.6,0-1.3,0-2.1,0
				c0.4,0.8,0.7,1.3,1,1.8c4.3,7.6,8.7,15.2,13,22.8c0.6,1,0.6,1.7-0.1,2.6c-5,7.8-9.9,15.6-14.8,23.4c-0.3,0.4-0.8,0.7-0.5,1.4
				c3.4,0,6.9,0,10.4,0c0.9,0,1.1-0.5,1.5-1.1c1.7-3.2,3.4-6.4,5.1-9.5C492.6,230,494.2,226.9,496,223.6z M544.1,238.4
				c0,1.3,0.1,2.7,0,4c-0.1,1,0.3,1.4,1.3,1.3c2.2-0.1,4.3-0.1,6.5,0c1.1,0,1.5-0.3,1.5-1.4c-0.1-7.4,0-14.8,0-22.3
				c0-2.1,0-4.2-0.3-6.3c-0.8-6.1-4.3-10.3-10.4-11.5c-6.6-1.4-12.9,0-19,2.6c-0.7,0.3-0.9,0.8-0.9,1.6c0,1.8,0,3.6,0,5.4
				c0,0.4-0.2,1,0.2,1.3c0.5,0.3,0.8-0.3,1.2-0.5c3.7-2.4,7.8-3.6,12.3-3.6c4.8,0,7.5,2.6,7.7,7.2c0,0.9-0.3,1.3-1.2,1.4
				c-3.9,0.5-7.7,1-11.6,1.6c-7.7,1-11.8,5-12.5,12.3c-0.7,6.8,3.3,12,10,13.1C535,245.4,540.1,243.6,544.1,238.4z M652.4,238.1
				c0,1.8,0,3.1,0,4.4c0,0.9,0.3,1.2,1.2,1.2c2.3,0,4.6,0,7,0c0.8,0,1.1-0.2,1.1-1.1c0-9.1,0.1-18.2-0.1-27.4
				c-0.2-7.1-4-11.8-10.6-13.2c-6.5-1.4-12.8,0-18.8,2.6c-0.4,0.2-0.9,0.4-0.9,0.9c0,2.4,0,4.9,0,7.4c0.8,0,1.2-0.5,1.6-0.8
				c3.6-2.3,7.6-3.4,11.9-3.4c4.8,0,7.3,2.3,7.8,7.1c0.1,0.9-0.1,1.4-1.1,1.5s-1.9,0.2-2.9,0.4c-4.2,0.7-8.5,0.8-12.6,2.1
				c-4.7,1.5-7.7,4.6-8.6,9.6c-0.3,1.5-0.3,3-0.1,4.5c0.4,4.6,2.6,8,7,9.7c5.4,2.1,12.9,1.5,17.4-4.5
				C651.7,238.9,651.9,238.7,652.4,238.1z M692.7,211.6c0-2.7-0.1-5.2,0-7.6c0.1-1.5-0.6-1.8-1.9-2c-5.5-0.6-9.4,1.5-11.7,6.6
				c-0.2,0.5-0.5,1-0.7,1.6c-0.2-2.2-0.2-4.3-0.2-6.4c0-0.8-0.2-1.2-1.1-1.2c-2.4,0.1-4.7,0.1-7.1,0c-0.9,0-1.1,0.3-1.1,1.2
				c0,12.9,0,25.9,0,38.8c0,1,0.4,1.2,1.3,1.2c2.2,0,4.3-0.1,6.5,0c1.2,0.1,1.6-0.3,1.6-1.5c-0.1-6.3,0-12.7,0-19
				c0-1.4,0.1-2.9,0.3-4.3c1.1-5.9,4.8-9,10.2-8.5C690,210.4,691.2,210.9,692.7,211.6z M697.1,223.2c0,6.4,0,12.8,0,19.2
				c0,1.1,0.3,1.4,1.4,1.4c1.6-0.1,3.2,0,4.8,0c3.1,0,3.1,0,3.1-3.1c0-12.2,0-24.3,0-36.5c0-1.2-0.4-1.6-1.5-1.5
				c-2.1,0.1-4.2,0.1-6.3,0c-1.1-0.1-1.5,0.3-1.5,1.4C697.1,210.4,697.1,216.8,697.1,223.2z M701.8,193.4c3.3,0,5.8-2.3,5.8-5.3
				s-2.7-5.5-5.8-5.4c-3.2,0-5.6,2.4-5.6,5.5C696.2,191.2,698.6,193.4,701.8,193.4z"/>
			<path class="st3" d="M405.5,156.2c4.2,1,6.7,3.9,8.8,7.6c8.7,15.3,17.5,30.5,26.4,45.7c2.7,4.6,2.7,8.8,0,13.3
				c-9.2,15.8-18.3,31.6-27.4,47.5c-2.3,3.9-5.6,5.9-10.1,5.9c-18.6,0-37.2,0-55.8,0c-4.5,0-7.9-1.9-10.1-5.9
				c-9.1-15.8-18.2-31.7-27.4-47.5c-2.7-4.6-2.7-8.8,0-13.3c9.1-15.6,18.1-31.2,27-46.8c1.9-3.4,4.5-5.5,8.1-6.5
				C365.1,156.2,385.3,156.2,405.5,156.2z M375.1,216.6c0.4,0.6,0.6,1,0.8,1.4c5.2,9.2,10.3,18.4,15.5,27.6c0.6,1.1,1.3,1.6,2.7,1.6
				c2.6-0.1,5.3,0,7.9,0c2.3,0,2.8-0.7,1.6-2.8c-5-8.9-9.9-17.8-15-26.7c-0.6-1.1-0.6-1.9,0-3.1c5.1-8.9,10-17.9,15-26.8
				c1-1.9,0.6-2.6-1.6-2.6c-2.6,0-5.3,0.1-7.9,0c-1.4,0-2.1,0.4-2.8,1.6c-3.9,7.1-7.9,14.2-11.9,21.3c-1.4,2.5-2.8,5-4.3,7.6
				c-0.4-0.6-0.7-1.1-0.9-1.5c-5.2-9.2-10.3-18.3-15.4-27.5c-0.6-1-1.2-1.6-2.5-1.6c-2.6,0.1-5.3,0-7.9,0c-2.5,0-2.9,0.7-1.7,2.8
				c5,8.9,9.9,17.8,15,26.7c0.7,1.1,0.6,1.9,0,3.1c-5,8.9-10,17.8-15,26.7c-1.1,2-0.7,2.8,1.5,2.8c2.7,0,5.5,0,8.2,0
				c1.1,0,1.8-0.4,2.3-1.4c0.7-1.3,1.5-2.6,2.2-3.9C365.6,233.5,370.3,225.2,375.1,216.6z"/>
			<path class="st4" d="M750.6,243.7c-2.6,0-5.3-0.1-7.9,0c-1.2,0-1.4-0.4-1.4-1.5c0-7.3,0-14.5,0-21.8c0-1.6-0.2-3.2-0.5-4.7
				c-0.7-2.9-2.1-5.3-5.2-6.2c-3.3-0.9-6.3-0.2-8.9,2.2c-2.4,2.3-3.4,5.3-3.4,8.5c0,7.2,0,14.3,0,21.5c0,2.2,0.3,1.9-2,1.9
				c-2,0-4,0-6,0c-0.9,0-1.3-0.2-1.3-1.2c0-12.9,0-25.9,0-38.8c0-0.8,0.2-1.2,1.1-1.2c2.4,0.1,4.7,0.1,7.1,0c0.9,0,1.1,0.3,1.1,1.2
				c-0.1,1.7,0,3.4,0,5.2c0.7-0.3,0.8-0.9,1.1-1.3c4.9-7,14.1-7.1,19.1-4.7c4.3,2.1,5.9,6.1,6.6,10.5c0.1,0.4-0.1,0.8,0.3,1.1
				C750.6,224.3,750.6,234,750.6,243.7z"/>
			<path class="st4" d="M569.7,208.9c5.9-9.9,20.9-9.7,24.8,0.4c0.5-0.2,0.6-0.7,0.8-1c4.4-6.5,11.7-7.8,17.9-6
				c4.5,1.3,6.7,4.9,7.7,9.2c0.5,1.9,0.7,3.9,0.7,5.8c0,8.3,0,16.6,0,24.9c0,1.2-0.3,1.5-1.5,1.4c-2.2-0.1-4.3-0.1-6.5,0
				c-1.1,0-1.4-0.3-1.4-1.4c0-7.3,0-14.6,0-22c0-1.9-0.2-3.8-0.7-5.7c-1.5-5.7-8.4-7.5-12.6-3.3c-2.3,2.3-3.4,5.2-3.5,8.5
				c-0.1,7.4-0.1,14.7,0,22.1c0,1.3-0.3,1.8-1.7,1.7c-2.1-0.1-4.1-0.1-6.2,0c-1.2,0.1-1.5-0.3-1.5-1.5c0.1-7.5,0-15,0-22.6
				c0-1.9-0.3-3.8-0.8-5.6c-1.8-5.7-9-6-12.2-3c-2.6,2.5-3.6,5.6-3.6,9.1c-0.1,7.3,0,14.6,0,22c0,1.3-0.3,1.7-1.6,1.6
				c-2-0.1-4-0.1-6,0c-1.3,0.1-1.7-0.3-1.7-1.7c0.1-9.7,0-19.4,0-29.1c0-3,0-6.1,0-9.1c0-1,0.3-1.3,1.3-1.3c2.3,0.1,4.5,0.1,6.8,0
				c0.9,0,1.3,0.2,1.2,1.2C569.6,205.3,569.7,206.9,569.7,208.9z"/>
			<path class="st5" d="M496,223.6c-1.8,3.3-3.5,6.4-5.1,9.5c-1.7,3.2-3.4,6.4-5.1,9.5c-0.3,0.6-0.6,1.1-1.5,1.1
				c-3.5-0.1-6.9,0-10.4,0c-0.2-0.7,0.3-1,0.5-1.4c4.9-7.8,9.8-15.6,14.8-23.4c0.6-1,0.6-1.6,0.1-2.6c-4.4-7.6-8.7-15.2-13-22.8
				c-0.3-0.5-0.5-1-1-1.8c0.8,0,1.5,0,2.1,0c2.7,0,5.4,0.1,8,0c1.2,0,1.8,0.3,2.3,1.4c2.6,5.5,5.3,10.9,8,16.4
				c0.2,0.5,0.5,1,0.8,1.5c0.7-0.3,0.8-0.9,1-1.4c2.9-5.5,5.9-11.1,8.8-16.7c0.5-0.9,0.9-1.3,2-1.3c3,0.1,6.1,0,9.2,0
				c0.1,0.7-0.4,1.1-0.6,1.5c-4.5,7.6-8.9,15.2-13.4,22.7c-0.7,1.1-0.6,1.9,0,2.9c4.6,7.7,9.2,15.5,13.7,23.3
				c0.9,1.5,0.9,1.5-0.8,1.5c-2.8,0-5.7,0-8.5,0c-1,0-1.5-0.3-2-1.2c-2.9-5.7-5.9-11.4-8.9-17.1C496.7,224.8,496.5,224.4,496,223.6z
				"/>
			<path class="st5" d="M544.1,238.4c-4,5.2-9.1,7-15.3,6c-6.7-1.1-10.7-6.3-10-13.1c0.8-7.3,4.8-11.3,12.5-12.3
				c3.9-0.5,7.7-1.1,11.6-1.6c0.9-0.1,1.2-0.5,1.2-1.4c-0.2-4.6-2.9-7.2-7.7-7.2c-4.4,0-8.5,1.2-12.3,3.6c-0.4,0.2-0.7,0.8-1.2,0.5
				c-0.4-0.3-0.2-0.8-0.2-1.3c0-1.8,0-3.6,0-5.4c0-0.8,0.2-1.3,0.9-1.6c6.1-2.7,12.4-4,19-2.6c6,1.3,9.6,5.4,10.4,11.5
				c0.3,2.1,0.3,4.2,0.3,6.3c0,7.4,0,14.8,0,22.3c0,1.2-0.3,1.5-1.5,1.4c-2.2-0.1-4.3-0.1-6.5,0c-1,0-1.3-0.3-1.3-1.3
				C544.1,241,544.1,239.7,544.1,238.4z M544.2,226.3c0-0.6,0-1.1,0-1.7c0-0.5-0.1-0.9-0.8-0.8c-3.9,0.6-7.9,0.7-11.7,1.9
				c-2.7,0.9-3.8,2.6-3.8,5.6c0,2.7,1.3,4.7,3.9,5.5c3.3,1,6.4,0.5,9.1-1.8S544.3,229.6,544.2,226.3z"/>
			<path class="st4" d="M652.4,238.1c-0.5,0.6-0.7,0.7-0.8,0.9c-4.4,6.1-12,6.6-17.4,4.5c-4.4-1.7-6.6-5.1-7-9.7
				c-0.1-1.5-0.1-3,0.1-4.5c0.9-5,3.9-8.1,8.6-9.6c4.1-1.3,8.4-1.4,12.6-2.1c1-0.2,1.9-0.3,2.9-0.4c1-0.1,1.1-0.6,1.1-1.5
				c-0.5-4.8-3-7.1-7.8-7.1c-4.3,0-8.2,1.2-11.9,3.4c-0.5,0.3-0.8,0.8-1.6,0.8c0-2.5,0-4.9,0-7.4c0-0.6,0.5-0.8,0.9-0.9
				c6-2.6,12.3-4,18.8-2.6c6.6,1.4,10.4,6,10.6,13.2c0.2,9.1,0.1,18.2,0.1,27.4c0,0.8-0.3,1.1-1.1,1.1c-2.3,0-4.6,0-7,0
				c-0.9,0-1.2-0.3-1.2-1.2C652.4,241.2,652.4,239.9,652.4,238.1z M652.5,226.5c0-0.7,0-1.3,0-2c0-0.5-0.1-0.8-0.7-0.7
				c-3.9,0.6-7.9,0.7-11.7,1.9c-2.8,0.9-4,2.8-4,5.9c0.1,2.6,1.6,4.6,4.3,5.4c3.7,1.1,7.8-0.3,10-3.3
				C652.1,231.5,652.6,229.1,652.5,226.5z"/>
			<path class="st4" d="M692.7,211.6c-1.4-0.6-2.6-1.1-3.9-1.2c-5.3-0.5-9.1,2.7-10.2,8.5c-0.3,1.4-0.3,2.9-0.3,4.3
				c0,6.3,0,12.7,0,19c0,1.3-0.4,1.6-1.6,1.5c-2.2-0.1-4.3-0.1-6.5,0c-0.9,0-1.3-0.1-1.3-1.2c0-12.9,0-25.9,0-38.8
				c0-0.8,0.2-1.2,1.1-1.2c2.4,0.1,4.7,0.1,7.1,0c0.9,0,1.1,0.3,1.1,1.2c-0.1,2.1,0,4.2,0.2,6.4c0.2-0.5,0.5-1,0.7-1.6
				c2.3-5.1,6.2-7.2,11.7-6.6c1.2,0.1,1.9,0.5,1.9,2C692.6,206.4,692.7,208.9,692.7,211.6z"/>
			<path class="st4" d="M697.1,223.2c0-6.4,0-12.8,0-19.2c0-1.2,0.3-1.5,1.5-1.4c2.1,0.1,4.2,0.1,6.3,0c1.2-0.1,1.5,0.3,1.5,1.5
				c0,12.2,0,24.3,0,36.5c0,3.1,0,3.1-3.1,3.1c-1.6,0-3.2-0.1-4.8,0c-1.1,0.1-1.4-0.3-1.4-1.4C697.1,235.9,697.1,229.5,697.1,223.2z
				"/>
			<path class="st6" d="M701.8,193.4c-3.2,0-5.6-2.2-5.6-5.3s2.4-5.5,5.6-5.5c3.1,0,5.7,2.4,5.8,5.4
				C707.6,191.1,705.1,193.4,701.8,193.4z"/>
			<path class="st7" d="M375.1,216.6c-4.8,8.6-9.5,16.9-14.2,25.3c-0.7,1.3-1.5,2.6-2.2,3.9c-0.5,1-1.2,1.4-2.3,1.4
				c-2.7-0.1-5.5,0-8.2,0c-2.2,0-2.6-0.8-1.5-2.8c5-8.9,10-17.8,15-26.7c0.6-1.1,0.7-1.9,0-3.1c-5-8.9-10-17.8-15-26.7
				c-1.2-2.1-0.8-2.8,1.7-2.8c2.6,0,5.3,0.1,7.9,0c1.3-0.1,1.9,0.5,2.5,1.6c5.1,9.2,10.3,18.3,15.4,27.5c0.2,0.4,0.5,0.9,0.9,1.5
				c1.5-2.7,2.9-5.1,4.3-7.6c4-7.1,8-14.2,11.9-21.3c0.7-1.2,1.4-1.7,2.8-1.6c2.6,0.1,5.3,0,7.9,0c2.1,0,2.6,0.8,1.6,2.6
				c-5,8.9-10,17.9-15,26.8c-0.6,1.1-0.7,1.9,0,3.1c5,8.9,10,17.8,15,26.7c1.2,2.1,0.7,2.8-1.6,2.8c-2.6,0-5.3-0.1-7.9,0
				c-1.3,0-2-0.5-2.7-1.6c-5.1-9.2-10.3-18.4-15.5-27.6C375.7,217.6,375.5,217.2,375.1,216.6z"/>
			<path class="st8" d="M544.2,226.3c0.1,3.4-0.7,6.4-3.3,8.8c-2.7,2.3-5.8,2.8-9.1,1.8c-2.5-0.8-3.9-2.8-3.9-5.5
				c0-3,1.1-4.7,3.8-5.6c3.8-1.2,7.8-1.3,11.7-1.9c0.7-0.1,0.8,0.2,0.8,0.8C544.2,225.1,544.2,225.7,544.2,226.3z"/>
			<path class="st8" d="M652.5,226.5c0.1,2.6-0.4,5-2,7.1c-2.3,3.1-6.4,4.4-10,3.3c-2.6-0.8-4.2-2.8-4.3-5.4c-0.1-3.1,1.1-5,4-5.9
				c3.8-1.2,7.8-1.2,11.7-1.9c0.6-0.1,0.7,0.2,0.7,0.7C652.5,225.1,652.5,225.8,652.5,226.5z"/>
		</g>
	</g>
</g>
<g id="Layer_3">
	<path class="st3" d="M72.8,247.8h389.4c7.1,0,12.8-5.5,12.8-12.4v-107c0-6.8-5.7-12.3-12.7-12.4L121,117.2c-5.2,0-9.9,2.9-11.9,7.5
		L61,230.6C57.5,238.7,63.7,247.8,72.8,247.8z"/>
</g>
<g id="Layer_5">
	<path class="st3" d="M918,371H475c-5.5,0-10-4-10-8.9V248.4c0-4.9,4.5-8.9,10-8.9h497c7.1,0,12,6.5,9.2,12.4l-54,113.6
		C925.6,368.8,922,371,918,371z"/>
</g>
<g id="Layer_2_1_">
	<path class="st3" d="M539.2,116c8.9,2.2,14.2,8.3,18.6,16.1c18.5,32.5,37.2,64.9,56.1,97.2c5.7,9.7,5.6,18.7,0,28.4
		c-19.6,33.5-38.9,67.2-58.3,100.8c-4.8,8.3-11.9,12.5-21.5,12.4c-39.5,0-79,0-118.5,0c-9.6,0-16.7-4.1-21.5-12.4
		c-19.4-33.6-38.7-67.3-58.3-100.8c-5.7-9.7-5.7-18.7,0-28.4c19.3-33,38.5-66.2,57.4-99.4c4.1-7.1,9.6-11.7,17.3-13.9
		C453.4,116,496.3,116,539.2,116z"/>
	<path class="st3" d="M446.2,246.7c-10.7,18.8-21.3,37.7-31.8,56.6c-2.4,4.2-1.5,5.9,3.2,5.9c5.8,0,11.6-0.1,17.4,0.1
		c2.4,0.1,3.8-0.9,4.9-3c1.4-2.8,3.1-5.5,4.6-8.3c10-17.7,19.9-35.5,30.2-53.7c0.8,1.3,1.3,2.1,1.8,2.9c11,19.5,22,39.1,32.9,58.7
		c1.3,2.4,2.8,3.5,5.7,3.4c5.6-0.2,11.2,0,16.7-0.1c5,0,5.9-1.6,3.4-6c-10.6-18.9-21.1-37.8-31.8-56.6c-1.4-2.4-1.3-4.1,0-6.5
		c10.7-18.9,21.3-37.9,32-56.9c2.2-4,1.2-5.6-3.3-5.6c-5.6,0-11.2,0.1-16.7-0.1c-2.9-0.1-4.5,0.9-6,3.4
		c-8.3,15.1-16.8,30.2-25.3,45.2c-3,5.3-6,10.6-9.1,16.2c-0.8-1.4-1.4-2.3-1.9-3.2c-10.9-19.4-21.9-38.9-32.8-58.3
		c-1.2-2.2-2.6-3.5-5.3-3.4c-5.6,0.2-11.2,0.1-16.7,0.1c-5.3,0-6.2,1.5-3.6,6c10.6,18.9,21.1,37.8,31.8,56.6
		C447.7,242.7,447.5,244.4,446.2,246.7"/>
	<path class="st7" d="M474.7,244.3c-10.3,18.3-20.2,36-30.2,53.7c-1.6,2.8-3.2,5.5-4.6,8.3c-1.1,2.1-2.5,3-4.9,3
		c-5.8-0.2-11.6,0-17.4-0.1c-4.7,0-5.6-1.7-3.2-5.9c10.6-18.9,21.1-37.8,31.8-56.6c1.3-2.4,1.5-4.1,0.1-6.5
		c-10.7-18.8-21.2-37.7-31.8-56.6c-2.5-4.5-1.6-6,3.6-6c5.6,0,11.2,0.2,16.7-0.1c2.8-0.1,4.1,1.2,5.3,3.4
		c10.9,19.5,21.8,38.9,32.8,58.3c0.5,0.9,1.1,1.8,1.9,3.2c3.2-5.7,6.2-10.9,9.1-16.2c8.5-15.1,17-30.1,25.3-45.2
		c1.4-2.6,3.1-3.5,6-3.4c5.6,0.2,11.2,0,16.7,0.1c4.6,0,5.6,1.7,3.3,5.6c-10.6,19-21.2,38-32,56.9c-1.4,2.4-1.4,4.1,0,6.5
		c10.7,18.8,21.3,37.7,31.8,56.6c2.5,4.4,1.5,6-3.4,6c-5.6,0-11.2-0.1-16.7,0.1c-2.8,0.1-4.3-1-5.7-3.4
		c-10.9-19.6-21.9-39.1-32.9-58.7C476.1,246.4,475.5,245.6,474.7,244.3z"/>
</g>
<g id="Layer_4">
	<g>
		<path class="st9" d="M117.8,142.7c3.6-0.6,7.6-1.1,12-1.5c4.4-0.4,8.8-0.5,13.2-0.5c4.5,0,9,0.3,13.5,1s8.6,2,12.3,4.1
			c3.6,2,6.6,4.9,8.9,8.5c2.3,3.6,3.5,8.4,3.5,14.4c0,5.3-1,9.8-3,13.5s-4.6,6.7-8,9c-3.3,2.3-7.1,4-11.3,5.1s-8.6,1.6-13,1.6
			c-0.4,0-1.1,0-2,0c-1,0-2,0-3.1-0.1c-1.1,0-2.1-0.1-3.1-0.2c-1-0.1-1.7-0.2-2.2-0.2v28.2h-17.7L117.8,142.7L117.8,142.7z
			 M144.1,156.2c-1.7,0-3.3,0-4.8,0.1c-1.6,0.1-2.8,0.2-3.8,0.5v24.9c0.3,0.1,0.8,0.2,1.6,0.2c0.7,0.1,1.5,0.1,2.3,0.2
			c0.8,0,1.5,0.1,2.2,0.1s1.2,0.1,1.6,0.1c2.3,0,4.6-0.2,6.9-0.5c2.3-0.3,4.4-1,6.2-2s3.2-2.5,4.4-4.2c1.1-1.8,1.7-4.2,1.7-7.2
			c0-2.6-0.5-4.6-1.6-6.2c-1-1.6-2.4-2.8-4.1-3.6c-1.7-0.9-3.7-1.5-5.9-1.8C148.6,156.3,146.3,156.2,144.1,156.2z"/>
		<path class="st9" d="M209.6,162.8v34.8c0,5.2,0.7,9,2.2,11.4c1.4,2.4,4.2,3.6,8.3,3.6c3.5,0,6.5-0.9,8.9-2.8
			c2.4-1.8,4.1-4.1,5.3-6.9v-40.1h16.8v43.7c0,3.4,0.2,6.7,0.5,10.1s0.9,6.4,1.5,9.1h-12.3l-3.2-9.8H236c-2.1,3.4-5,6.1-8.9,8.3
			s-8.2,3.3-13.2,3.3c-3.4,0-6.5-0.4-9.1-1.3c-2.6-0.9-4.8-2.3-6.6-4.4c-1.8-2-3.2-4.7-4.1-8.1c-0.9-3.4-1.4-7.5-1.4-12.4v-38.4
			h16.9V162.8z"/>
		<path class="st9" d="M306.7,178.1c-2.4-0.8-4.8-1.2-7.2-1.2c-3.5,0-6.4,0.8-8.7,2.5c-2.3,1.7-3.8,3.8-4.5,6.3v39.8h-16.8v-62.8
			h13.2l1.8,8.7h1.6c1.6-3.3,3.7-5.8,6.4-7.5c2.7-1.8,5.7-2.6,9.2-2.6c2.2,0,4.6,0.4,7.4,1.3L306.7,178.1z"/>
		<path class="st9" d="M371.9,219.8c-2.7,2.1-6.4,3.8-11.1,5.3s-9.7,2.2-15,2.2c-10.8,0-18.7-3-23.7-8.9s-7.5-14-7.5-24.3
			c0-10.9,2.8-19.2,8.5-24.8s13.6-8.4,23.9-8.4c3.4,0,6.7,0.4,9.9,1.3c3.3,0.8,6.2,2.2,8.7,4.2c2.6,2,4.6,4.6,6.2,7.9
			c1.6,3.3,2.3,7.4,2.3,12.3c0,1.7-0.1,3.5-0.3,5.5c-0.2,2-0.5,4.1-1,6.2H331c0.4,5.4,2,9.4,4.7,12c2.8,2.6,7.2,3.9,13.5,3.9
			c3.7,0,7.1-0.5,10.1-1.6s5.3-2.2,6.9-3.3L371.9,219.8z M346.8,174.1c-4.9,0-8.6,1.3-11,4s-3.8,6.1-4.2,10.2h27
			c0.3-4.4-0.5-7.9-2.4-10.4C354.3,175.4,351.2,174.1,346.8,174.1z"/>
	</g>
</g>
<g id="Layer_6">
	<g>
		<path class="st9" d="M576.2,258.4h55v16h-36.9v20h34v16h-34v34h-18L576.2,258.4L576.2,258.4z"/>
		<path class="st9" d="M640.6,312.2c0-10.6,2.8-19,8.4-25.1c5.6-6.1,13.6-9.1,24-9.1c5.4,0,10.2,0.9,14.3,2.6s7.4,4.1,10.1,7.2
			c2.7,3.1,4.7,6.7,6,10.8c1.3,4.1,2,8.7,2,13.6c0,5.2-0.7,10-2.2,14.2s-3.6,7.8-6.3,10.8c-2.8,2.9-6.2,5.2-10.2,6.8
			c-4,1.6-8.6,2.3-13.7,2.3c-5.5,0-10.3-0.9-14.4-2.6c-4.1-1.7-7.4-4.1-10.1-7.2s-4.7-6.7-6-10.8
			C641.3,321.6,640.6,317.1,640.6,312.2z M658.2,312.2c0,2.7,0.3,5.2,0.9,7.6c0.6,2.4,1.4,4.4,2.6,6.2c1.2,1.8,2.7,3.2,4.6,4.2
			c1.9,1.1,4.1,1.6,6.8,1.6c9.9,0,14.9-6.6,14.9-19.7c0-2.9-0.3-5.5-0.8-7.9s-1.4-4.5-2.6-6.3c-1.2-1.8-2.7-3.1-4.6-4.1
			c-1.9-1-4.2-1.5-6.9-1.5c-4.6,0-8.3,1.6-10.9,4.7C659.5,300.2,658.2,305.3,658.2,312.2z"/>
		<path class="st9" d="M757.1,295.7c-2.4-0.8-4.9-1.2-7.3-1.2c-3.6,0-6.5,0.9-8.8,2.6s-3.8,3.9-4.6,6.5v40.9h-17.1V280h13.4l1.8,9
			h1.6c1.6-3.4,3.8-5.9,6.5-7.7c2.7-1.8,5.8-2.7,9.3-2.7c2.2,0,4.7,0.5,7.6,1.4L757.1,295.7z"/>
		<path class="st9" d="M808.8,344.4v-33.7c0-6.2-0.7-10.7-2-13.4c-1.3-2.7-4-4.1-8-4.1c-3.4,0-6.1,0.8-8.2,2.5
			c-2,1.7-3.6,3.9-4.8,6.6v42h-17.1v-64.5H782l2,9h1.6c1.1-1.4,2.3-2.7,3.7-4.1c1.4-1.3,2.9-2.5,4.6-3.4c1.7-1,3.5-1.8,5.6-2.4
			s4.4-0.9,7-0.9c4.3,0,7.9,1,10.8,2.9c2.9,1.9,5.2,5.1,6.9,9.6c2.4-3.9,5.2-7,8.6-9.2c3.4-2.2,7.3-3.3,11.8-3.3
			c3.9,0,7.2,0.5,9.9,1.4s4.9,2.5,6.6,4.7c1.7,2.2,2.9,5.2,3.7,9s1.2,8.5,1.2,14.1v37.2h-17.1v-34.5c0-2.7-0.1-5.1-0.4-7.1
			c-0.2-2-0.7-3.8-1.5-5.2c-0.7-1.4-1.8-2.5-3.1-3.2s-3.1-1-5.3-1c-3.4,0-6.2,0.9-8.2,2.6c-2.1,1.8-3.6,4.2-4.4,7.3v41.2h-17.2
			V344.4z"/>
		<path class="st9" d="M883.3,327.7c1.1,0.6,2.5,1.1,4,1.7s3.1,1.1,4.9,1.6c1.7,0.5,3.5,0.9,5.4,1.2c1.8,0.3,3.7,0.5,5.5,0.5
			c2.8,0,5.1-0.4,6.6-1.4c1.6-0.9,2.4-2.6,2.4-5c0-2-1.1-3.4-3.2-4.4c-2.1-0.9-4.7-1.9-7.8-2.8c-2.3-0.7-4.7-1.4-7.1-2.3
			c-2.5-0.9-4.8-2.1-6.8-3.6c-2.1-1.5-3.8-3.5-5.1-6s-2-5.6-2-9.3c0-6.5,2-11.4,6-14.8s9.7-5.1,17.2-5.1c4.9,0,9.4,0.4,13.7,1.3
			s7.7,1.9,10.3,3l-3.5,13c-2.1-0.8-4.8-1.7-8.1-2.5c-3.3-0.9-6.6-1.3-10.1-1.3c-2.8,0-5,0.4-6.3,1.3c-1.4,0.9-2.1,2.4-2.1,4.5
			c0,1.9,1.1,3.3,3.2,4.2c2.2,0.9,4.8,1.9,7.9,2.8c2.3,0.7,4.7,1.4,7.1,2.3c2.5,0.9,4.7,2,6.8,3.5c2,1.5,3.7,3.4,5.1,5.7
			c1.3,2.3,2,5.3,2,8.8c0,6.9-2.2,12.2-6.6,16c-4.4,3.8-11.1,5.7-19.9,5.7c-4.8,0-9.3-0.4-13.4-1.3c-4.1-0.9-7.5-2.1-10.1-3.7
			L883.3,327.7z"/>
	</g>
</g>
</svg>
