<?xml version="1.0" encoding="utf-8"?>
<!-- Generator: Adobe Illustrator 22.0.1, SVG Export Plug-In . SVG Version: 6.00 Build 0)  -->
<svg version="1.1" id="Layer_1" xmlns="http://www.w3.org/2000/svg" xmlns:xlink="http://www.w3.org/1999/xlink" x="0px" y="0px"
	 viewBox="0 0 1000 400" style="enable-background:new 0 0 1000 400;" xml:space="preserve">
<style type="text/css">
	.st0{fill:#3796D3;}
	.st1{fill:#FFFFFF;}
</style>
<g id="Xamarin_2_" transform="translate(228.834961, 105.948280)">
	<g id="Layer_2_3_">
		<path id="Path_6_" class="st0" d="M47.1,19c1.5,0.4,2.3,1.4,3,2.6c3,5.3,6.1,10.7,9.2,16c0.9,1.6,0.9,3.1,0,4.7
			c-3.2,5.5-6.4,11-9.5,16.6c-0.8,1.4-1.9,2.1-3.5,2c-6.5,0-12.9,0-19.4,0c-1.6,0-2.7-0.7-3.5-2c-3.2-5.5-6.3-11.1-9.5-16.6
			c-0.9-1.6-0.9-3.1,0-4.7c3.2-5.4,6.3-10.9,9.4-16.3c0.7-1.2,1.6-1.9,2.8-2.3C33.1,19,40.1,19,47.1,19z"/>
		<path id="Path_7_" class="st0" d="M31.1,40.5c-1.8,3.1-3.5,6.2-5.2,9.3c-0.4,0.7-0.2,1,0.5,1c0.9,0,1.9,0,2.8,0
			c0.4,0,0.6-0.1,0.8-0.5c0.2-0.5,0.5-0.9,0.8-1.4c1.6-2.9,3.3-5.8,4.9-8.8c0.1,0.2,0.2,0.3,0.3,0.5c1.8,3.2,3.6,6.4,5.4,9.6
			c0.2,0.4,0.5,0.6,0.9,0.6c0.9,0,1.8,0,2.7,0c0.8,0,1-0.3,0.6-1c-1.7-3.1-3.5-6.2-5.2-9.3c-0.2-0.4-0.2-0.7,0-1.1
			c1.8-3.1,3.5-6.2,5.2-9.3c0.4-0.7,0.2-0.9-0.5-0.9c-0.9,0-1.8,0-2.7,0c-0.5,0-0.7,0.1-1,0.6c-1.4,2.5-2.8,5-4.1,7.4
			c-0.5,0.9-1,1.7-1.5,2.7c-0.1-0.2-0.2-0.4-0.3-0.5c-1.8-3.2-3.6-6.4-5.4-9.6c-0.2-0.4-0.4-0.6-0.9-0.6c-0.9,0-1.8,0-2.7,0
			c-0.9,0-1,0.2-0.6,1c1.7,3.1,3.5,6.2,5.2,9.3C31.3,39.8,31.3,40.1,31.1,40.5"/>
		<path id="Path_8_" class="st1" d="M36.6,40.1c-1.7,3-3.3,5.9-4.9,8.8c-0.3,0.5-0.5,0.9-0.8,1.4c-0.2,0.3-0.4,0.5-0.8,0.5
			c-0.9,0-1.9,0-2.8,0c-0.8,0-0.9-0.3-0.5-1c1.7-3.1,3.5-6.2,5.2-9.3c0.2-0.4,0.2-0.7,0-1.1c-1.8-3.1-3.5-6.2-5.2-9.3
			c-0.4-0.7-0.3-1,0.6-1c0.9,0,1.8,0,2.7,0c0.5,0,0.7,0.2,0.9,0.6c1.8,3.2,3.6,6.4,5.4,9.6c0.1,0.1,0.2,0.3,0.3,0.5
			c0.5-0.9,1-1.8,1.5-2.7c1.4-2.5,2.8-4.9,4.1-7.4c0.2-0.4,0.5-0.6,1-0.6c0.9,0,1.8,0,2.7,0c0.8,0,0.9,0.3,0.5,0.9
			c-1.7,3.1-3.5,6.2-5.2,9.3c-0.2,0.4-0.2,0.7,0,1.1c1.8,3.1,3.5,6.2,5.2,9.3c0.4,0.7,0.2,1-0.6,1c-0.9,0-1.8,0-2.7,0
			c-0.5,0-0.7-0.2-0.9-0.6c-1.8-3.2-3.6-6.4-5.4-9.6C36.8,40.4,36.7,40.3,36.6,40.1z"/>
	</g>
</g>
<g id="Xamarin_7_" transform="translate(436.834961, 292.948273)">
	<g id="Layer_2_8_">
		<path id="Path_21_" class="st0" d="M53.7,19c1.7,0.4,2.8,1.6,3.6,3.1c3.6,6.4,7.3,12.7,10.9,19c1.1,1.9,1.1,3.7,0,5.6
			c-3.8,6.6-7.6,13.1-11.4,19.7c-0.9,1.6-2.3,2.4-4.2,2.4c-7.7,0-15.4,0-23.1,0c-1.9,0-3.3-0.8-4.2-2.4c-3.8-6.6-7.5-13.2-11.4-19.7
			c-1.1-1.9-1.1-3.7,0-5.6c3.8-6.5,7.5-12.9,11.2-19.4c0.8-1.4,1.9-2.3,3.4-2.7C36.9,19,45.3,19,53.7,19z"/>
		<path id="Path_22_" class="st0" d="M34.5,44.6c-2.1,3.7-4.2,7.4-6.2,11.1c-0.5,0.8-0.3,1.2,0.6,1.2c1.1,0,2.3,0,3.4,0
			c0.5,0,0.7-0.2,1-0.6c0.3-0.5,0.6-1.1,0.9-1.6c2-3.5,3.9-6.9,5.9-10.5c0.2,0.3,0.3,0.4,0.4,0.6c2.1,3.8,4.3,7.6,6.4,11.5
			c0.3,0.5,0.5,0.7,1.1,0.7c1.1,0,2.2,0,3.3,0c1,0,1.2-0.3,0.7-1.2c-2.1-3.7-4.1-7.4-6.2-11.1c-0.3-0.5-0.3-0.8,0-1.3
			c2.1-3.7,4.2-7.4,6.2-11.1c0.4-0.8,0.2-1.1-0.6-1.1c-1.1,0-2.2,0-3.3,0c-0.6,0-0.9,0.2-1.2,0.7c-1.6,3-3.3,5.9-4.9,8.8
			c-0.6,1-1.2,2.1-1.8,3.2c-0.2-0.3-0.3-0.4-0.4-0.6c-2.1-3.8-4.3-7.6-6.4-11.4c-0.2-0.4-0.5-0.7-1-0.7c-1.1,0-2.2,0-3.3,0
			c-1,0-1.2,0.3-0.7,1.2c2.1,3.7,4.1,7.4,6.2,11.1C34.8,43.8,34.8,44.1,34.5,44.6"/>
		<path id="Path_23_" class="st1" d="M41.1,44.1c-2,3.6-3.9,7-5.9,10.5c-0.3,0.5-0.6,1.1-0.9,1.6c-0.2,0.4-0.5,0.6-1,0.6
			c-1.1,0-2.3,0-3.4,0c-0.9,0-1.1-0.3-0.6-1.2c2.1-3.7,4.1-7.4,6.2-11.1c0.3-0.5,0.3-0.8,0-1.3c-2.1-3.7-4.1-7.4-6.2-11.1
			C28.9,31.3,29,31,30,31c1.1,0,2.2,0,3.3,0c0.5,0,0.8,0.2,1,0.7c2.1,3.8,4.3,7.6,6.4,11.4c0.1,0.2,0.2,0.4,0.4,0.6
			c0.6-1.1,1.2-2.1,1.8-3.2c1.7-3,3.3-5.9,4.9-8.8c0.3-0.5,0.6-0.7,1.2-0.7c1.1,0,2.2,0,3.3,0c0.9,0,1.1,0.3,0.6,1.1
			c-2.1,3.7-4.1,7.4-6.2,11.1c-0.3,0.5-0.3,0.8,0,1.3c2.1,3.7,4.2,7.4,6.2,11.1c0.5,0.9,0.3,1.2-0.7,1.2c-1.1,0-2.2,0-3.3,0
			c-0.5,0-0.8-0.2-1.1-0.7c-2.1-3.8-4.3-7.6-6.4-11.5C41.4,44.5,41.2,44.3,41.1,44.1z"/>
	</g>
</g>
<g id="Xamarin_17_" transform="translate(697.000000, 13.948280)">
	<g id="Layer_2_18_">
		<path id="Path_51_" class="st0" d="M47.2,19c1.5,0.4,2.3,1.4,3.1,2.7c3,5.4,6.1,10.7,9.2,16c0.9,1.6,0.9,3.1,0,4.7
			c-3.2,5.5-6.4,11.1-9.6,16.6c-0.8,1.4-2,2.1-3.5,2c-6.5,0-13,0-19.5,0c-1.6,0-2.7-0.7-3.5-2c-3.2-5.6-6.4-11.1-9.6-16.6
			c-0.9-1.6-0.9-3.1,0-4.7c3.2-5.4,6.3-10.9,9.4-16.4c0.7-1.2,1.6-1.9,2.8-2.3C33.1,19,40.2,19,47.2,19z"/>
		<path id="Path_52_" class="st0" d="M31.1,40.5c-1.8,3.1-3.5,6.2-5.2,9.3c-0.4,0.7-0.2,1,0.5,1c1,0,1.9,0,2.9,0
			c0.4,0,0.6-0.1,0.8-0.5c0.2-0.5,0.5-0.9,0.8-1.4c1.6-2.9,3.3-5.8,5-8.8c0.1,0.2,0.2,0.3,0.3,0.5c1.8,3.2,3.6,6.4,5.4,9.7
			c0.2,0.4,0.5,0.6,0.9,0.6c0.9,0,1.8,0,2.7,0c0.8,0,1-0.3,0.6-1c-1.7-3.1-3.5-6.2-5.2-9.3c-0.2-0.4-0.2-0.7,0-1.1
			c1.8-3.1,3.5-6.2,5.3-9.4c0.4-0.7,0.2-0.9-0.5-0.9c-0.9,0-1.8,0-2.7,0c-0.5,0-0.7,0.1-1,0.6c-1.4,2.5-2.8,5-4.2,7.4
			c-0.5,0.9-1,1.7-1.5,2.7c-0.1-0.2-0.2-0.4-0.3-0.5c-1.8-3.2-3.6-6.4-5.4-9.6c-0.2-0.4-0.4-0.6-0.9-0.6c-0.9,0-1.8,0-2.7,0
			c-0.9,0-1,0.2-0.6,1c1.7,3.1,3.5,6.2,5.2,9.3C31.4,39.9,31.4,40.1,31.1,40.5"/>
		<path id="Path_53_" class="st1" d="M36.7,40.1c-1.7,3-3.3,5.9-5,8.8c-0.3,0.5-0.5,0.9-0.8,1.4c-0.2,0.3-0.4,0.5-0.8,0.5
			c-1,0-1.9,0-2.9,0c-0.8,0-0.9-0.3-0.5-1c1.7-3.1,3.5-6.2,5.2-9.3c0.2-0.4,0.2-0.7,0-1.1c-1.8-3.1-3.5-6.2-5.2-9.3
			c-0.4-0.7-0.3-1,0.6-1c0.9,0,1.8,0,2.7,0c0.5,0,0.7,0.2,0.9,0.6c1.8,3.2,3.6,6.4,5.4,9.6c0.1,0.1,0.2,0.3,0.3,0.5
			c0.5-0.9,1-1.8,1.5-2.7c1.4-2.5,2.8-5,4.2-7.4c0.2-0.4,0.5-0.6,1-0.6c0.9,0,1.8,0,2.7,0c0.8,0,0.9,0.3,0.5,0.9
			c-1.7,3.1-3.5,6.3-5.3,9.4c-0.2,0.4-0.2,0.7,0,1.1c1.8,3.1,3.5,6.2,5.2,9.3c0.4,0.7,0.2,1-0.6,1c-0.9,0-1.8,0-2.7,0
			c-0.5,0-0.7-0.2-0.9-0.6c-1.8-3.2-3.6-6.4-5.4-9.7C36.9,40.5,36.8,40.3,36.7,40.1z"/>
	</g>
</g>
<g id="Xamarin_19_" transform="translate(0.000000, 13.948280)">
	<g id="Layer_2_20_">
		<path id="Path_57_" class="st0" d="M39.9,19c1.1,0.3,1.8,1.1,2.4,2.1c2.4,4.2,4.8,8.4,7.2,12.6c0.7,1.3,0.7,2.4,0,3.7
			c-2.5,4.3-5,8.7-7.5,13c-0.6,1.1-1.5,1.6-2.8,1.6c-5.1,0-10.2,0-15.3,0c-1.2,0-2.2-0.5-2.8-1.6c-2.5-4.4-5-8.7-7.5-13.1
			c-0.7-1.3-0.7-2.4,0-3.7c2.5-4.3,5-8.6,7.4-12.9c0.5-0.9,1.2-1.5,2.2-1.8C28.8,19,34.4,19,39.9,19z"/>
		<path id="Path_58_" class="st0" d="M27.3,35.9c-1.4,2.4-2.7,4.9-4.1,7.3C22.8,43.8,23,44,23.6,44c0.7,0,1.5,0,2.2,0
			c0.3,0,0.5-0.1,0.6-0.4c0.2-0.4,0.4-0.7,0.6-1.1c1.3-2.3,2.6-4.6,3.9-6.9c0.1,0.2,0.2,0.3,0.2,0.4c1.4,2.5,2.8,5.1,4.2,7.6
			c0.2,0.3,0.4,0.5,0.7,0.4c0.7,0,1.4,0,2.2,0c0.6,0,0.8-0.2,0.4-0.8c-1.4-2.4-2.7-4.9-4.1-7.3c-0.2-0.3-0.2-0.5,0-0.8
			c1.4-2.4,2.7-4.9,4.1-7.4c0.3-0.5,0.2-0.7-0.4-0.7c-0.7,0-1.4,0-2.2,0c-0.4,0-0.6,0.1-0.8,0.4c-1.1,2-2.2,3.9-3.3,5.8
			c-0.4,0.7-0.8,1.4-1.2,2.1c-0.1-0.2-0.2-0.3-0.2-0.4c-1.4-2.5-2.8-5-4.2-7.5c-0.2-0.3-0.3-0.5-0.7-0.4c-0.7,0-1.4,0-2.2,0
			c-0.7,0-0.8,0.2-0.5,0.8c1.4,2.4,2.7,4.9,4.1,7.3C27.5,35.4,27.4,35.6,27.3,35.9"/>
		<path id="Path_59_" class="st1" d="M31.6,35.6c-1.3,2.4-2.6,4.7-3.9,6.9c-0.2,0.4-0.4,0.7-0.6,1.1c-0.1,0.3-0.3,0.4-0.6,0.4
			c-0.7,0-1.5,0-2.2,0c-0.6,0-0.7-0.2-0.4-0.8c1.4-2.4,2.7-4.9,4.1-7.3c0.2-0.3,0.2-0.5,0-0.8c-1.4-2.4-2.7-4.9-4.1-7.3
			c-0.3-0.6-0.2-0.8,0.5-0.8c0.7,0,1.4,0,2.2,0c0.4,0,0.5,0.2,0.7,0.4c1.4,2.5,2.8,5,4.2,7.5c0.1,0.1,0.1,0.2,0.2,0.4
			c0.4-0.7,0.8-1.4,1.2-2.1c1.1-2,2.2-3.9,3.3-5.8c0.2-0.3,0.4-0.5,0.8-0.4c0.7,0,1.4,0,2.2,0c0.6,0,0.7,0.2,0.4,0.7
			c-1.4,2.5-2.7,4.9-4.1,7.4c-0.2,0.3-0.2,0.5,0,0.8c1.4,2.4,2.7,4.9,4.1,7.3c0.3,0.6,0.2,0.8-0.4,0.8c-0.7,0-1.4,0-2.2,0
			c-0.4,0-0.6-0.1-0.7-0.4c-1.4-2.5-2.8-5.1-4.2-7.6C31.8,35.9,31.7,35.8,31.6,35.6z"/>
	</g>
</g>
<g id="Xamarin_22_" transform="translate(953.000000, 241.948273)">
	<g id="Layer_2_23_">
		<path id="Path_66_" class="st0" d="M-2.2,19c1.7,0.4,2.8,1.6,3.6,3.1c3.6,6.4,7.3,12.7,10.9,19c1.1,1.9,1.1,3.7,0,5.6
			C8.5,53.3,4.7,59.9,1,66.4C0,68-1.4,68.9-3.2,68.9c-7.7,0-15.4,0-23.1,0c-1.9,0-3.3-0.8-4.2-2.4c-3.8-6.6-7.5-13.2-11.4-19.7
			c-1.1-1.9-1.1-3.7,0-5.6c3.8-6.5,7.5-12.9,11.2-19.4c0.8-1.4,1.9-2.3,3.4-2.7C-19,19-10.6,19-2.2,19z"/>
		<path id="Path_67_" class="st0" d="M-21.3,44.6c-2.1,3.7-4.2,7.4-6.2,11.1c-0.5,0.8-0.3,1.2,0.6,1.2c1.1,0,2.3,0,3.4,0
			c0.5,0,0.7-0.2,1-0.6c0.3-0.5,0.6-1.1,0.9-1.6c2-3.5,3.9-6.9,5.9-10.5c0.2,0.3,0.3,0.4,0.4,0.6c2.1,3.8,4.3,7.6,6.4,11.5
			c0.3,0.5,0.5,0.7,1.1,0.7c1.1,0,2.2,0,3.3,0c1,0,1.2-0.3,0.7-1.2c-2.1-3.7-4.1-7.4-6.2-11.1c-0.3-0.5-0.3-0.8,0-1.3
			c2.1-3.7,4.2-7.4,6.2-11.1c0.4-0.8,0.2-1.1-0.6-1.1c-1.1,0-2.2,0-3.3,0c-0.6,0-0.9,0.2-1.2,0.7c-1.6,3-3.3,5.9-4.9,8.8
			c-0.6,1-1.2,2.1-1.8,3.2c-0.2-0.3-0.3-0.4-0.4-0.6c-2.1-3.8-4.3-7.6-6.4-11.4c-0.2-0.4-0.5-0.7-1-0.7c-1.1,0-2.2,0-3.3,0
			c-1,0-1.2,0.3-0.7,1.2c2.1,3.7,4.1,7.4,6.2,11.1C-21.1,43.8-21.1,44.1-21.3,44.6"/>
		<path id="Path_68_" class="st1" d="M-14.8,44.1c-2,3.6-3.9,7-5.9,10.5c-0.3,0.5-0.6,1.1-0.9,1.6c-0.2,0.4-0.5,0.6-1,0.6
			c-1.1,0-2.3,0-3.4,0c-0.9,0-1.1-0.3-0.6-1.2c2.1-3.7,4.1-7.4,6.2-11.1c0.3-0.5,0.3-0.8,0-1.3c-2.1-3.7-4.1-7.4-6.2-11.1
			c-0.5-0.9-0.3-1.2,0.7-1.2c1.1,0,2.2,0,3.3,0c0.5,0,0.8,0.2,1,0.7c2.1,3.8,4.3,7.6,6.4,11.4c0.1,0.2,0.2,0.4,0.4,0.6
			c0.6-1.1,1.2-2.1,1.8-3.2c1.7-3,3.3-5.9,4.9-8.8c0.3-0.5,0.6-0.7,1.2-0.7c1.1,0,2.2,0,3.3,0c0.9,0,1.1,0.3,0.6,1.1
			c-2.1,3.7-4.1,7.4-6.2,11.1c-0.3,0.5-0.3,0.8,0,1.3c2.1,3.7,4.2,7.4,6.2,11.1c0.5,0.9,0.3,1.2-0.7,1.2c-1.1,0-2.2,0-3.3,0
			c-0.5,0-0.8-0.2-1.1-0.7c-2.1-3.8-4.3-7.6-6.4-11.5C-14.5,44.5-14.7,44.3-14.8,44.1z"/>
	</g>
</g>
</svg>
