<?xml version="1.0" encoding="utf-8"?>
<!-- Generator: Adobe Illustrator 22.0.1, SVG Export Plug-In . SVG Version: 6.00 Build 0)  -->
<svg version="1.1" id="Layer_1" xmlns="http://www.w3.org/2000/svg" xmlns:xlink="http://www.w3.org/1999/xlink" x="0px" y="0px"
	 viewBox="0 0 1000 400" style="enable-background:new 0 0 1000 400;" xml:space="preserve">
<style type="text/css">
	.st0{fill:#3796D3;}
	.st1{fill:#FFFFFF;}
</style>
<g id="Home-page">
	<g id="Desktop" transform="translate(-7.000000, 0.000000)">
		<g id="BG" transform="translate(0.000000, -32.000000)">
			<g id="Banner">
				<g id="floaters" transform="translate(7.000000, 0.000000)">
					<g id="Xamarin_5_" transform="translate(41.834961, 193.948273)">
						<g id="Layer_2_6_">
							<path id="Path_15_" class="st0" d="M64.6-4c0.6,0.2,1,0.6,1.3,1.1c1.3,2.3,2.6,4.6,3.9,6.8c0.4,0.7,0.4,1.3,0,2
								c-1.4,2.4-2.7,4.7-4.1,7.1c-0.3,0.6-0.8,0.9-1.5,0.9c-2.8,0-5.5,0-8.3,0c-0.7,0-1.2-0.3-1.5-0.9c-1.4-2.4-2.7-4.7-4.1-7.1
								c-0.4-0.7-0.4-1.3,0-2c1.4-2.3,2.7-4.6,4-7c0.3-0.5,0.7-0.8,1.2-1C58.6-4,61.6-4,64.6-4z"/>
							<path id="Path_16_" class="st0" d="M57.7,5.2c-0.7,1.3-1.5,2.6-2.2,4c-0.2,0.3-0.1,0.4,0.2,0.4c0.4,0,0.8,0,1.2,0
								c0.2,0,0.3-0.1,0.3-0.2c0.1-0.2,0.2-0.4,0.3-0.6C58.3,7.5,59,6.3,59.7,5c0.1,0.1,0.1,0.1,0.1,0.2c0.8,1.4,1.5,2.7,2.3,4.1
								c0.1,0.2,0.2,0.2,0.4,0.2c0.4,0,0.8,0,1.2,0c0.4,0,0.4-0.1,0.2-0.4c-0.7-1.3-1.5-2.7-2.2-4c-0.1-0.2-0.1-0.3,0-0.5
								c0.7-1.3,1.5-2.7,2.2-4c0.2-0.3,0.1-0.4-0.2-0.4c-0.4,0-0.8,0-1.2,0c-0.2,0-0.3,0.1-0.4,0.2c-0.6,1.1-1.2,2.1-1.8,3.2
								c-0.2,0.4-0.4,0.7-0.6,1.1c-0.1-0.1-0.1-0.2-0.1-0.2c-0.8-1.4-1.5-2.7-2.3-4.1c-0.1-0.2-0.2-0.2-0.4-0.2c-0.4,0-0.8,0-1.2,0
								c-0.4,0-0.4,0.1-0.3,0.4c0.7,1.3,1.5,2.7,2.2,4C57.8,4.9,57.8,5,57.7,5.2"/>
							<path id="Path_17_" class="st1" d="M60.1,5c-0.7,1.3-1.4,2.5-2.1,3.8c-0.1,0.2-0.2,0.4-0.3,0.6c-0.1,0.1-0.2,0.2-0.3,0.2
								c-0.4,0-0.8,0-1.2,0c-0.3,0-0.4-0.1-0.2-0.4c0.7-1.3,1.5-2.7,2.2-4c0.1-0.2,0.1-0.3,0-0.5c-0.7-1.3-1.5-2.6-2.2-4
								c-0.2-0.3-0.1-0.4,0.3-0.4c0.4,0,0.8,0,1.2,0c0.2,0,0.3,0.1,0.4,0.2c0.8,1.4,1.5,2.7,2.3,4.1c0,0.1,0.1,0.1,0.1,0.2
								c0.2-0.4,0.4-0.8,0.6-1.1c0.6-1.1,1.2-2.1,1.8-3.2c0.1-0.2,0.2-0.2,0.4-0.2c0.4,0,0.8,0,1.2,0c0.3,0,0.4,0.1,0.2,0.4
								c-0.7,1.3-1.5,2.7-2.2,4C62,4.9,62,5,62.1,5.2c0.7,1.3,1.5,2.6,2.2,4c0.2,0.3,0.1,0.4-0.2,0.4c-0.4,0-0.8,0-1.2,0
								c-0.2,0-0.3-0.1-0.4-0.2C61.7,8,61,6.6,60.2,5.2C60.2,5.2,60.1,5.1,60.1,5z"/>
						</g>
					</g>
					<g id="Xamarin_8_" transform="translate(427.000000, 87.931038)">
						<g id="Layer_2_9_">
							<path id="Path_24_" class="st0" d="M63.9-4c0.6,0.1,0.9,0.6,1.2,1.1c1.2,2.2,2.5,4.3,3.7,6.5c0.4,0.6,0.4,1.2,0,1.9
								c-1.3,2.2-2.6,4.5-3.9,6.7c-0.3,0.6-0.8,0.8-1.4,0.8c-2.6,0-5.3,0-7.9,0c-0.6,0-1.1-0.3-1.4-0.8c-1.3-2.2-2.6-4.5-3.9-6.7
								c-0.4-0.6-0.4-1.2,0-1.9c1.3-2.2,2.6-4.4,3.8-6.6c0.3-0.5,0.6-0.8,1.1-0.9C58.2-4,61-4,63.9-4z"/>
							<path id="Path_25_" class="st0" d="M57.4,4.7c-0.7,1.3-1.4,2.5-2.1,3.8c-0.2,0.3-0.1,0.4,0.2,0.4c0.4,0,0.8,0,1.2,0
								c0.2,0,0.3-0.1,0.3-0.2c0.1-0.2,0.2-0.4,0.3-0.6c0.7-1.2,1.3-2.4,2-3.6c0.1,0.1,0.1,0.1,0.1,0.2c0.7,1.3,1.5,2.6,2.2,3.9
								c0.1,0.2,0.2,0.2,0.4,0.2c0.4,0,0.7,0,1.1,0c0.3,0,0.4-0.1,0.2-0.4c-0.7-1.3-1.4-2.5-2.1-3.8c-0.1-0.2-0.1-0.3,0-0.4
								c0.7-1.3,1.4-2.5,2.1-3.8c0.1-0.3,0.1-0.4-0.2-0.4c-0.4,0-0.7,0-1.1,0c-0.2,0-0.3,0.1-0.4,0.2c-0.6,1-1.1,2-1.7,3
								c-0.2,0.4-0.4,0.7-0.6,1.1c-0.1-0.1-0.1-0.2-0.1-0.2c-0.7-1.3-1.5-2.6-2.2-3.9c-0.1-0.1-0.2-0.2-0.4-0.2c-0.4,0-0.7,0-1.1,0
								c-0.4,0-0.4,0.1-0.2,0.4C56,1.8,56.7,3,57.4,4.3C57.5,4.4,57.4,4.6,57.4,4.7"/>
							<path id="Path_26_" class="st1" d="M59.6,4.6c-0.7,1.2-1.3,2.4-2,3.6c-0.1,0.2-0.2,0.4-0.3,0.6c-0.1,0.1-0.2,0.2-0.3,0.2
								c-0.4,0-0.8,0-1.2,0c-0.3,0-0.4-0.1-0.2-0.4C56.3,7.2,57,6,57.7,4.7c0.1-0.2,0.1-0.3,0-0.4C57,3,56.3,1.8,55.6,0.5
								c-0.2-0.3-0.1-0.4,0.2-0.4c0.4,0,0.7,0,1.1,0c0.2,0,0.3,0.1,0.4,0.2c0.7,1.3,1.5,2.6,2.2,3.9c0,0.1,0.1,0.1,0.1,0.2
								c0.2-0.4,0.4-0.7,0.6-1.1c0.6-1,1.1-2,1.7-3c0.1-0.2,0.2-0.2,0.4-0.2c0.4,0,0.7,0,1.1,0c0.3,0,0.4,0.1,0.2,0.4
								c-0.7,1.3-1.4,2.5-2.1,3.8c-0.1,0.2-0.1,0.3,0,0.4c0.7,1.3,1.4,2.5,2.1,3.8c0.2,0.3,0.1,0.4-0.2,0.4c-0.4,0-0.7,0-1.1,0
								c-0.2,0-0.3-0.1-0.4-0.2c-0.7-1.3-1.5-2.6-2.2-3.9C59.7,4.7,59.6,4.6,59.6,4.6z"/>
						</g>
					</g>
					<g id="Xamarin_9_" transform="translate(588.000000, 137.948273)">
						<g id="Layer_2_10_">
							<path id="Path_27_" class="st0" d="M63.9-4c0.6,0.1,0.9,0.6,1.2,1.1c1.2,2.2,2.5,4.3,3.7,6.5c0.4,0.6,0.4,1.2,0,1.9
								c-1.3,2.2-2.6,4.5-3.9,6.7c-0.3,0.6-0.8,0.8-1.4,0.8c-2.6,0-5.3,0-7.9,0c-0.6,0-1.1-0.3-1.4-0.8c-1.3-2.2-2.6-4.5-3.9-6.7
								c-0.4-0.6-0.4-1.2,0-1.9c1.3-2.2,2.6-4.4,3.8-6.6c0.3-0.5,0.6-0.8,1.1-0.9C58.2-4,61-4,63.9-4z"/>
							<path id="Path_28_" class="st0" d="M57.4,4.7c-0.7,1.3-1.4,2.5-2.1,3.8c-0.2,0.3-0.1,0.4,0.2,0.4c0.4,0,0.8,0,1.2,0
								c0.2,0,0.3-0.1,0.3-0.2c0.1-0.2,0.2-0.4,0.3-0.6c0.7-1.2,1.3-2.4,2-3.6c0.1,0.1,0.1,0.1,0.1,0.2c0.7,1.3,1.5,2.6,2.2,3.9
								c0.1,0.2,0.2,0.2,0.4,0.2c0.4,0,0.7,0,1.1,0c0.3,0,0.4-0.1,0.2-0.4c-0.7-1.3-1.4-2.5-2.1-3.8c-0.1-0.2-0.1-0.3,0-0.4
								c0.7-1.3,1.4-2.5,2.1-3.8c0.1-0.3,0.1-0.4-0.2-0.4c-0.4,0-0.7,0-1.1,0c-0.2,0-0.3,0.1-0.4,0.2c-0.6,1-1.1,2-1.7,3
								c-0.2,0.4-0.4,0.7-0.6,1.1c-0.1-0.1-0.1-0.2-0.1-0.2c-0.7-1.3-1.5-2.6-2.2-3.9c-0.1-0.1-0.2-0.2-0.4-0.2c-0.4,0-0.7,0-1.1,0
								c-0.4,0-0.4,0.1-0.2,0.4C56,1.8,56.7,3,57.4,4.3C57.5,4.4,57.4,4.6,57.4,4.7"/>
							<path id="Path_29_" class="st1" d="M59.6,4.6c-0.7,1.2-1.3,2.4-2,3.6c-0.1,0.2-0.2,0.4-0.3,0.6c-0.1,0.1-0.2,0.2-0.3,0.2
								c-0.4,0-0.8,0-1.2,0c-0.3,0-0.4-0.1-0.2-0.4C56.3,7.2,57,6,57.7,4.7c0.1-0.2,0.1-0.3,0-0.4C57,3,56.3,1.8,55.6,0.5
								c-0.2-0.3-0.1-0.4,0.2-0.4c0.4,0,0.7,0,1.1,0c0.2,0,0.3,0.1,0.4,0.2c0.7,1.3,1.5,2.6,2.2,3.9c0,0.1,0.1,0.1,0.1,0.2
								c0.2-0.4,0.4-0.7,0.6-1.1c0.6-1,1.1-2,1.7-3c0.1-0.2,0.2-0.2,0.4-0.2c0.4,0,0.7,0,1.1,0c0.3,0,0.4,0.1,0.2,0.4
								c-0.7,1.3-1.4,2.5-2.1,3.8c-0.1,0.2-0.1,0.3,0,0.4c0.7,1.3,1.4,2.5,2.1,3.8c0.2,0.3,0.1,0.4-0.2,0.4c-0.4,0-0.7,0-1.1,0
								c-0.2,0-0.3-0.1-0.4-0.2c-0.7-1.3-1.5-2.6-2.2-3.9C59.7,4.7,59.6,4.6,59.6,4.6z"/>
						</g>
					</g>
					<g id="Xamarin_12_" transform="translate(588.000000, 292.948273)">
						<g id="Layer_2_13_">
							<path id="Path_36_" class="st0" d="M69.7-4c0.8,0.2,1.3,0.8,1.8,1.5c1.7,3.1,3.5,6.1,5.3,9.2c0.5,0.9,0.5,1.8,0,2.7
								c-1.8,3.2-3.7,6.4-5.5,9.5c-0.5,0.8-1.1,1.2-2,1.2c-3.7,0-7.5,0-11.2,0c-0.9,0-1.6-0.4-2-1.2c-1.8-3.2-3.7-6.4-5.5-9.5
								c-0.5-0.9-0.5-1.8,0-2.7c1.8-3.1,3.6-6.3,5.4-9.4c0.4-0.7,0.9-1.1,1.6-1.3C61.6-4,65.6-4,69.7-4z"/>
							<path id="Path_37_" class="st0" d="M60.4,8.4c-1,1.8-2,3.6-3,5.4c-0.2,0.4-0.1,0.6,0.3,0.6c0.5,0,1.1,0,1.6,0
								c0.2,0,0.4-0.1,0.5-0.3c0.1-0.3,0.3-0.5,0.4-0.8c0.9-1.7,1.9-3.4,2.8-5.1c0.1,0.1,0.1,0.2,0.2,0.3c1,1.8,2.1,3.7,3.1,5.6
								c0.1,0.2,0.3,0.3,0.5,0.3c0.5,0,1.1,0,1.6,0c0.5,0,0.6-0.2,0.3-0.6c-1-1.8-2-3.6-3-5.4c-0.1-0.2-0.1-0.4,0-0.6
								c1-1.8,2-3.6,3-5.4C69,2,68.9,1.8,68.5,1.8c-0.5,0-1.1,0-1.6,0c-0.3,0-0.4,0.1-0.6,0.3C65.6,3.6,64.8,5,64,6.4
								c-0.3,0.5-0.6,1-0.9,1.5C63.1,7.8,63,7.7,63,7.6c-1-1.8-2.1-3.7-3.1-5.5c-0.1-0.2-0.2-0.3-0.5-0.3c-0.5,0-1.1,0-1.6,0
								c-0.5,0-0.6,0.1-0.3,0.6c1,1.8,2,3.6,3,5.4C60.6,8,60.5,8.1,60.4,8.4"/>
							<path id="Path_38_" class="st1" d="M63.6,8.1c-1,1.7-1.9,3.4-2.8,5.1c-0.2,0.3-0.3,0.5-0.4,0.8c-0.1,0.2-0.2,0.3-0.5,0.3
								c-0.5,0-1.1,0-1.6,0c-0.4,0-0.5-0.2-0.3-0.6c1-1.8,2-3.6,3-5.4C61,8.1,61,8,60.9,7.7c-1-1.8-2-3.6-3-5.4
								c-0.2-0.4-0.2-0.6,0.3-0.6c0.5,0,1.1,0,1.6,0c0.3,0,0.4,0.1,0.5,0.3c1,1.8,2.1,3.7,3.1,5.5c0,0.1,0.1,0.2,0.2,0.3
								c0.3-0.5,0.6-1,0.9-1.5c0.8-1.4,1.6-2.8,2.4-4.3c0.1-0.2,0.3-0.3,0.6-0.3c0.5,0,1.1,0,1.6,0c0.4,0,0.5,0.2,0.3,0.5
								c-1,1.8-2,3.6-3,5.4c-0.1,0.2-0.1,0.4,0,0.6c1,1.8,2,3.6,3,5.4c0.2,0.4,0.1,0.6-0.3,0.6c-0.5,0-1.1,0-1.6,0
								c-0.3,0-0.4-0.1-0.5-0.3c-1-1.9-2.1-3.7-3.1-5.6C63.7,8.3,63.7,8.3,63.6,8.1z"/>
						</g>
					</g>
					<g id="Xamarin_15_" transform="translate(359.000000, 353.948273)">
						<g id="Layer_2_16_">
							<path id="Path_45_" class="st0" d="M69.6-4c0.8,0.2,1.3,0.8,1.7,1.5c1.7,3.1,3.5,6.1,5.3,9.1c0.5,0.9,0.5,1.8,0,2.7
								c-1.8,3.2-3.7,6.3-5.5,9.5c-0.5,0.8-1.1,1.2-2,1.2c-3.7,0-7.4,0-11.1,0c-0.9,0-1.6-0.4-2-1.2c-1.8-3.2-3.6-6.3-5.5-9.5
								c-0.5-0.9-0.5-1.8,0-2.7c1.8-3.1,3.6-6.2,5.4-9.4c0.4-0.7,0.9-1.1,1.6-1.3C61.5-4,65.5-4,69.6-4z"/>
							<path id="Path_46_" class="st0" d="M60.4,8.3c-1,1.8-2,3.5-3,5.3c-0.2,0.4-0.1,0.6,0.3,0.6c0.5,0,1.1,0,1.6,0
								c0.2,0,0.4-0.1,0.5-0.3c0.1-0.3,0.3-0.5,0.4-0.8c0.9-1.7,1.9-3.3,2.8-5.1c0.1,0.1,0.1,0.2,0.2,0.3c1,1.8,2.1,3.7,3.1,5.5
								c0.1,0.2,0.3,0.3,0.5,0.3c0.5,0,1.1,0,1.6,0c0.5,0,0.6-0.2,0.3-0.6c-1-1.8-2-3.6-3-5.3c-0.1-0.2-0.1-0.4,0-0.6
								c1-1.8,2-3.6,3-5.4c0.2-0.4,0.1-0.5-0.3-0.5c-0.5,0-1.1,0-1.6,0c-0.3,0-0.4,0.1-0.6,0.3c-0.8,1.4-1.6,2.8-2.4,4.3
								c-0.3,0.5-0.6,1-0.9,1.5c-0.1-0.1-0.1-0.2-0.2-0.3c-1-1.8-2.1-3.7-3.1-5.5c-0.1-0.2-0.2-0.3-0.5-0.3c-0.5,0-1.1,0-1.6,0
								c-0.5,0-0.6,0.1-0.3,0.6c1,1.8,2,3.6,3,5.3C60.5,7.9,60.5,8.1,60.4,8.3"/>
							<path id="Path_47_" class="st1" d="M63.5,8.1c-1,1.7-1.9,3.4-2.8,5.1c-0.2,0.3-0.3,0.5-0.4,0.8c-0.1,0.2-0.2,0.3-0.5,0.3
								c-0.5,0-1.1,0-1.6,0c-0.4,0-0.5-0.2-0.3-0.6c1-1.8,2-3.6,3-5.3c0.1-0.2,0.1-0.4,0-0.6c-1-1.8-2-3.5-3-5.3
								c-0.2-0.4-0.2-0.6,0.3-0.6c0.5,0,1.1,0,1.6,0c0.3,0,0.4,0.1,0.5,0.3c1,1.8,2,3.7,3.1,5.5c0,0.1,0.1,0.2,0.2,0.3
								c0.3-0.5,0.6-1,0.9-1.5C65.2,5,66,3.5,66.8,2.1c0.1-0.2,0.3-0.3,0.6-0.3c0.5,0,1.1,0,1.6,0c0.4,0,0.5,0.2,0.3,0.5
								c-1,1.8-2,3.6-3,5.4c-0.1,0.2-0.1,0.4,0,0.6c1,1.8,2,3.5,3,5.3c0.2,0.4,0.1,0.6-0.3,0.6c-0.5,0-1.1,0-1.6,0
								c-0.3,0-0.4-0.1-0.5-0.3c-1-1.8-2.1-3.7-3.1-5.5C63.6,8.3,63.6,8.2,63.5,8.1z"/>
						</g>
					</g>
					<g id="Xamarin_16_" transform="translate(756.514526, 153.948273)">
						<g id="Layer_2_17_">
							<path id="Path_48_" class="st0" d="M67.1-4c0.7,0.2,1.2,0.7,1.5,1.3c1.5,2.7,3.1,5.3,4.6,8c0.5,0.8,0.5,1.5,0,2.3
								c-1.6,2.8-3.2,5.5-4.8,8.3c-0.4,0.7-1,1-1.8,1c-3.2,0-6.5,0-9.7,0c-0.8,0-1.4-0.3-1.8-1c-1.6-2.8-3.2-5.6-4.8-8.3
								c-0.5-0.8-0.5-1.5,0-2.3c1.6-2.7,3.2-5.5,4.7-8.2c0.3-0.6,0.8-1,1.4-1.1C60.1-4,63.6-4,67.1-4z"/>
							<path id="Path_49_" class="st0" d="M59.1,6.8c-0.9,1.5-1.7,3.1-2.6,4.7c-0.2,0.3-0.1,0.5,0.3,0.5c0.5,0,1,0,1.4,0
								c0.2,0,0.3-0.1,0.4-0.2c0.1-0.2,0.3-0.5,0.4-0.7c0.8-1.5,1.6-2.9,2.5-4.4c0.1,0.1,0.1,0.2,0.1,0.2c0.9,1.6,1.8,3.2,2.7,4.8
								c0.1,0.2,0.2,0.3,0.5,0.3c0.5,0,0.9,0,1.4,0c0.4,0,0.5-0.1,0.3-0.5c-0.9-1.6-1.7-3.1-2.6-4.7c-0.1-0.2-0.1-0.3,0-0.5
								c0.9-1.6,1.7-3.1,2.6-4.7c0.2-0.3,0.1-0.5-0.3-0.5c-0.5,0-0.9,0-1.4,0c-0.2,0-0.4,0.1-0.5,0.3c-0.7,1.2-1.4,2.5-2.1,3.7
								c-0.2,0.4-0.5,0.9-0.7,1.3c-0.1-0.1-0.1-0.2-0.2-0.3c-0.9-1.6-1.8-3.2-2.7-4.8c-0.1-0.2-0.2-0.3-0.4-0.3c-0.5,0-0.9,0-1.4,0
								c-0.4,0-0.5,0.1-0.3,0.5c0.9,1.6,1.7,3.1,2.6,4.7C59.2,6.4,59.2,6.6,59.1,6.8"/>
							<path id="Path_50_" class="st1" d="M61.8,6.6c-0.8,1.5-1.7,3-2.5,4.4c-0.1,0.2-0.3,0.5-0.4,0.7c-0.1,0.2-0.2,0.2-0.4,0.2
								c-0.5,0-1,0-1.4,0c-0.4,0-0.5-0.1-0.3-0.5c0.9-1.6,1.7-3.1,2.6-4.7c0.1-0.2,0.1-0.3,0-0.5c-0.9-1.5-1.7-3.1-2.6-4.7
								c-0.2-0.4-0.1-0.5,0.3-0.5c0.5,0,0.9,0,1.4,0c0.2,0,0.3,0.1,0.4,0.3c0.9,1.6,1.8,3.2,2.7,4.8c0,0.1,0.1,0.1,0.2,0.3
								c0.3-0.5,0.5-0.9,0.7-1.3c0.7-1.2,1.4-2.5,2.1-3.7c0.1-0.2,0.3-0.3,0.5-0.3c0.5,0,0.9,0,1.4,0c0.4,0,0.5,0.1,0.3,0.5
								c-0.9,1.6-1.7,3.1-2.6,4.7c-0.1,0.2-0.1,0.3,0,0.5c0.9,1.5,1.7,3.1,2.6,4.7c0.2,0.4,0.1,0.5-0.3,0.5c-0.5,0-0.9,0-1.4,0
								c-0.2,0-0.4-0.1-0.5-0.3C63.8,10,62.9,8.4,62,6.8C61.9,6.7,61.9,6.7,61.8,6.6z"/>
						</g>
					</g>
					<g id="Xamarin_20_" transform="translate(867.834961, 196.715515)">
						<g id="Layer_2_21_">
							<path id="Path_60_" class="st0" d="M68.9-4c0.8,0.2,1.3,0.8,1.7,1.5c1.7,3,3.4,5.9,5.1,8.9c0.5,0.9,0.5,1.7,0,2.6
								c-1.8,3.1-3.5,6.1-5.3,9.2c-0.4,0.8-1.1,1.1-2,1.1c-3.6,0-7.2,0-10.8,0c-0.9,0-1.5-0.4-2-1.1C54,15,52.2,12,50.5,8.9
								c-0.5-0.9-0.5-1.7,0-2.6c1.8-3,3.5-6,5.2-9.1C56-3.4,56.5-3.8,57.2-4C61.1-4,65-4,68.9-4z"/>
							<path id="Path_61_" class="st0" d="M60,7.9c-1,1.7-1.9,3.4-2.9,5.2c-0.2,0.4-0.1,0.5,0.3,0.5c0.5,0,1.1,0,1.6,0
								c0.2,0,0.3-0.1,0.4-0.3c0.1-0.3,0.3-0.5,0.4-0.8c0.9-1.6,1.8-3.2,2.7-4.9c0.1,0.1,0.1,0.2,0.2,0.3c1,1.8,2,3.6,3,5.3
								c0.1,0.2,0.3,0.3,0.5,0.3c0.5,0,1,0,1.5,0c0.5,0,0.5-0.1,0.3-0.5c-1-1.7-1.9-3.4-2.9-5.2c-0.1-0.2-0.1-0.4,0-0.6
								c1-1.7,1.9-3.5,2.9-5.2c0.2-0.4,0.1-0.5-0.3-0.5c-0.5,0-1,0-1.5,0c-0.3,0-0.4,0.1-0.5,0.3C65,3.3,64.3,4.7,63.5,6
								c-0.3,0.5-0.5,1-0.8,1.5c-0.1-0.1-0.1-0.2-0.2-0.3c-1-1.8-2-3.5-3-5.3c-0.1-0.2-0.2-0.3-0.5-0.3c-0.5,0-1,0-1.5,0
								c-0.5,0-0.6,0.1-0.3,0.5c1,1.7,1.9,3.4,2.9,5.2C60.2,7.5,60.2,7.7,60,7.9"/>
							<path id="Path_62_" class="st1" d="M63.1,7.7c-0.9,1.7-1.8,3.3-2.7,4.9c-0.1,0.3-0.3,0.5-0.4,0.8c-0.1,0.2-0.2,0.3-0.4,0.3
								c-0.5,0-1.1,0-1.6,0c-0.4,0-0.5-0.2-0.3-0.5c1-1.7,1.9-3.4,2.9-5.2c0.1-0.2,0.1-0.4,0-0.6c-1-1.7-1.9-3.4-2.9-5.2
								c-0.2-0.4-0.1-0.5,0.3-0.5c0.5,0,1,0,1.5,0c0.3,0,0.4,0.1,0.5,0.3c1,1.8,2,3.5,3,5.3c0,0.1,0.1,0.2,0.2,0.3
								c0.3-0.5,0.6-1,0.8-1.5c0.8-1.4,1.5-2.7,2.3-4.1c0.1-0.2,0.3-0.3,0.5-0.3c0.5,0,1,0,1.5,0c0.4,0,0.5,0.2,0.3,0.5
								c-1,1.7-1.9,3.5-2.9,5.2c-0.1,0.2-0.1,0.4,0,0.6c1,1.7,1.9,3.4,2.9,5.2c0.2,0.4,0.1,0.5-0.3,0.5c-0.5,0-1,0-1.5,0
								c-0.3,0-0.4-0.1-0.5-0.3c-1-1.8-2-3.6-3-5.3C63.2,7.9,63.2,7.8,63.1,7.7z"/>
						</g>
					</g>
				</g>
			</g>
		</g>
	</g>
</g>
</svg>
