<?xml version="1.0" encoding="utf-8"?>
<!-- Generator: Adobe Illustrator 22.0.1, SVG Export Plug-In . SVG Version: 6.00 Build 0)  -->
<svg version="1.1" id="Layer_1" xmlns="http://www.w3.org/2000/svg" xmlns:xlink="http://www.w3.org/1999/xlink" x="0px" y="0px"
	 viewBox="0 0 1000 400" style="enable-background:new 0 0 1000 400;" xml:space="preserve">
<style type="text/css">
	.st0{fill:#3796D3;}
	.st1{fill:#FFFFFF;}
</style>
<g id="Xamarin_1_" transform="translate(133.000000, 176.655182)">
	<g id="Layer_2_2_">
		<path id="Path_3_" class="st0" d="M51.3,13c2.4,0.6,3.9,2.3,5.1,4.4c5.1,9,10.2,17.9,15.4,26.8c1.6,2.7,1.5,5.2,0,7.8
			c-5.4,9.2-10.7,18.5-16,27.8c-1.3,2.3-3.3,3.4-5.9,3.4c-10.9,0-21.7,0-32.6,0c-2.6,0-4.6-1.1-5.9-3.4C6.1,70.6,0.8,61.3-4.6,52
			c-1.6-2.7-1.6-5.2,0-7.8C0.7,35.1,6,26,11.2,16.8c1.1-2,2.6-3.2,4.7-3.8C27.7,13,39.5,13,51.3,13z"/>
		<path id="Path_4_" class="st0" d="M24.4,49c-2.9,5.2-5.9,10.4-8.7,15.6c-0.7,1.2-0.4,1.6,0.9,1.6c1.6,0,3.2,0,4.8,0
			c0.7,0,1-0.2,1.3-0.8c0.4-0.8,0.9-1.5,1.3-2.3c2.7-4.9,5.5-9.8,8.3-14.8c0.2,0.4,0.4,0.6,0.5,0.8c3,5.4,6,10.8,9,16.2
			c0.4,0.7,0.8,1,1.6,0.9c1.5-0.1,3.1,0,4.6,0c1.4,0,1.6-0.4,0.9-1.7C45.9,59.4,43,54.2,40.1,49c-0.4-0.7-0.4-1.1,0-1.8
			C43,42,46,36.8,48.9,31.5c0.6-1.1,0.3-1.5-0.9-1.5c-1.5,0-3.1,0-4.6,0c-0.8,0-1.2,0.2-1.6,0.9c-2.3,4.2-4.6,8.3-7,12.5
			c-0.8,1.5-1.6,2.9-2.5,4.5c-0.2-0.4-0.4-0.6-0.5-0.9c-3-5.3-6-10.7-9-16.1c-0.3-0.6-0.7-1-1.5-0.9c-1.5,0.1-3.1,0-4.6,0
			c-1.5,0-1.7,0.4-1,1.7c2.9,5.2,5.8,10.4,8.7,15.6C24.8,47.9,24.7,48.4,24.4,49"/>
		<path id="Path_5_" class="st1" d="M33.6,48.4c-2.8,5-5.6,9.9-8.3,14.8c-0.4,0.8-0.9,1.5-1.3,2.3c-0.3,0.6-0.7,0.8-1.3,0.8
			c-1.6-0.1-3.2,0-4.8,0c-1.3,0-1.5-0.5-0.9-1.6c2.9-5.2,5.8-10.4,8.7-15.6c0.4-0.7,0.4-1.1,0-1.8c-2.9-5.2-5.8-10.4-8.7-15.6
			c-0.7-1.2-0.4-1.7,1-1.7c1.5,0,3.1,0.1,4.6,0c0.8,0,1.1,0.3,1.5,0.9c3,5.4,6,10.7,9,16.1c0.1,0.2,0.3,0.5,0.5,0.9
			c0.9-1.6,1.7-3,2.5-4.5c2.3-4.2,4.7-8.3,7-12.5c0.4-0.7,0.9-1,1.6-0.9c1.5,0.1,3.1,0,4.6,0c1.3,0,1.5,0.5,0.9,1.5
			c-2.9,5.2-5.8,10.5-8.8,15.7c-0.4,0.7-0.4,1.1,0,1.8c2.9,5.2,5.9,10.4,8.7,15.6c0.7,1.2,0.4,1.7-0.9,1.7c-1.5,0-3.1,0-4.6,0
			c-0.8,0-1.2-0.3-1.6-0.9c-3-5.4-6-10.8-9-16.2C34,48.9,33.8,48.7,33.6,48.4z"/>
	</g>
</g>
<g id="Xamarin_3_" transform="translate(208.834961, 300.948273)">
	<g id="Layer_2_4_">
		<path id="Path_9_" class="st0" d="M42.6,13c2.1,0.5,3.3,1.9,4.3,3.8c4.3,7.6,8.7,15.2,13.1,22.7c1.3,2.3,1.3,4.4,0,6.6
			C55.5,54,51,61.9,46.4,69.7c-1.1,1.9-2.8,2.9-5,2.9c-9.2,0-18.4,0-27.6,0c-2.2,0-3.9-1-5-2.9C4.3,61.8-0.2,54-4.8,46.1
			c-1.3-2.3-1.3-4.4,0-6.6c4.5-7.7,9-15.5,13.4-23.2c0.9-1.7,2.2-2.7,4-3.2C22.6,13,32.6,13,42.6,13z"/>
		<path id="Path_10_" class="st0" d="M19.8,43.6c-2.5,4.4-5,8.8-7.4,13.2c-0.6,1-0.3,1.4,0.7,1.4c1.4,0,2.7,0,4.1,0
			c0.6,0,0.9-0.2,1.1-0.7c0.3-0.7,0.7-1.3,1.1-1.9c2.3-4.1,4.6-8.3,7-12.6c0.2,0.3,0.3,0.5,0.4,0.7c2.6,4.6,5.1,9.1,7.7,13.7
			c0.3,0.6,0.7,0.8,1.3,0.8c1.3,0,2.6,0,3.9,0c1.2,0,1.4-0.4,0.8-1.4c-2.5-4.4-4.9-8.8-7.4-13.2c-0.3-0.6-0.3-1,0-1.5
			c2.5-4.4,5-8.9,7.5-13.3c0.5-0.9,0.3-1.3-0.8-1.3c-1.3,0-2.6,0-3.9,0c-0.7,0-1,0.2-1.4,0.8c-1.9,3.5-3.9,7.1-5.9,10.6
			c-0.7,1.2-1.4,2.5-2.1,3.8c-0.2-0.3-0.3-0.5-0.4-0.7c-2.5-4.5-5.1-9.1-7.6-13.6c-0.3-0.5-0.6-0.8-1.2-0.8c-1.3,0-2.6,0-3.9,0
			c-1.2,0-1.4,0.4-0.8,1.4c2.5,4.4,4.9,8.8,7.4,13.2C20.1,42.6,20.1,43,19.8,43.6"/>
		<path id="Path_11_" class="st1" d="M27.6,43c-2.4,4.3-4.7,8.4-7,12.6c-0.4,0.7-0.7,1.3-1.1,1.9c-0.3,0.5-0.6,0.7-1.1,0.7
			c-1.4,0-2.7,0-4.1,0c-1.1,0-1.3-0.4-0.7-1.4c2.5-4.4,4.9-8.8,7.4-13.2c0.3-0.6,0.3-1,0-1.5c-2.5-4.4-4.9-8.8-7.4-13.2
			c-0.6-1.1-0.4-1.4,0.8-1.4c1.3,0,2.6,0,3.9,0c0.7,0,1,0.3,1.2,0.8c2.5,4.6,5.1,9.1,7.6,13.6c0.1,0.2,0.3,0.4,0.4,0.7
			c0.7-1.3,1.4-2.5,2.1-3.8c2-3.5,4-7,5.9-10.6c0.3-0.6,0.7-0.8,1.4-0.8c1.3,0,2.6,0,3.9,0c1.1,0,1.3,0.4,0.8,1.3
			c-2.5,4.4-4.9,8.9-7.5,13.3c-0.3,0.6-0.3,1,0,1.5c2.5,4.4,5,8.8,7.4,13.2c0.6,1,0.3,1.4-0.8,1.4c-1.3,0-2.6,0-3.9,0
			c-0.7,0-1-0.2-1.3-0.8c-2.5-4.6-5.1-9.1-7.7-13.7C27.9,43.5,27.8,43.3,27.6,43z"/>
	</g>
</g>
<g id="Xamarin_6_" transform="translate(285.000000, 0.000000)">
	<g id="Layer_2_7_">
		<path id="Path_18_" class="st0" d="M60,13c2.8,0.7,4.5,2.6,5.9,5.1C71.7,28.4,77.7,38.7,83.6,49c1.8,3.1,1.8,5.9,0,9
			c-6.2,10.6-12.3,21.3-18.5,32c-1.5,2.6-3.8,4-6.8,3.9c-12.5,0-25,0-37.5,0c-3,0-5.3-1.3-6.8-3.9C7.9,79.3,1.8,68.6-4.4,58
			c-1.8-3.1-1.8-5.9,0-9c6.1-10.5,12.2-21,18.2-31.6c1.3-2.3,3-3.7,5.4-4.4C32.8,13,46.4,13,60,13z"/>
		<path id="Path_19_" class="st0" d="M29,54.5c-3.4,6-6.7,12-10.1,18c-0.8,1.3-0.5,1.9,1,1.9c1.8,0,3.7,0,5.5,0c0.8,0,1.2-0.3,1.6-1
			c0.4-0.9,1-1.7,1.5-2.6c3.2-5.6,6.3-11.3,9.6-17c0.3,0.4,0.4,0.7,0.6,0.9c3.5,6.2,7,12.4,10.4,18.6c0.4,0.8,0.9,1.1,1.8,1.1
			c1.8-0.1,3.5,0,5.3,0c1.6,0,1.9-0.5,1.1-1.9c-3.4-6-6.7-12-10.1-18c-0.4-0.8-0.4-1.3,0-2.1c3.4-6,6.7-12,10.1-18.1
			c0.7-1.3,0.4-1.8-1-1.8c-1.8,0-3.5,0-5.3,0c-0.9,0-1.4,0.3-1.9,1.1c-2.6,4.8-5.3,9.6-8,14.3c-0.9,1.7-1.9,3.4-2.9,5.1
			c-0.3-0.4-0.4-0.7-0.6-1c-3.5-6.2-6.9-12.3-10.4-18.5c-0.4-0.7-0.8-1.1-1.7-1.1c-1.8,0.1-3.5,0-5.3,0c-1.7,0-2,0.5-1.1,1.9
			c3.4,6,6.7,12,10.1,18C29.5,53.2,29.4,53.7,29,54.5"/>
		<path id="Path_20_" class="st1" d="M39.6,53.7c-3.3,5.8-6.4,11.4-9.6,17c-0.5,0.9-1,1.7-1.5,2.6c-0.3,0.7-0.8,1-1.6,1
			c-1.8-0.1-3.7,0-5.5,0c-1.5,0-1.8-0.5-1-1.9c3.4-6,6.7-12,10.1-18c0.4-0.8,0.5-1.3,0-2.1c-3.4-6-6.7-12-10.1-18
			c-0.8-1.4-0.5-1.9,1.1-1.9c1.8,0,3.5,0.1,5.3,0c0.9,0,1.3,0.4,1.7,1.1C32.1,39.8,35.5,46,39,52.1c0.2,0.3,0.3,0.6,0.6,1
			c1-1.8,2-3.5,2.9-5.1c2.7-4.8,5.4-9.6,8-14.3c0.4-0.8,1-1.1,1.9-1.1c1.8,0.1,3.5,0,5.3,0c1.5,0,1.8,0.5,1,1.8
			c-3.4,6-6.7,12.1-10.1,18.1c-0.4,0.8-0.4,1.3,0,2.1c3.4,6,6.7,12,10.1,18c0.8,1.4,0.5,1.9-1.1,1.9c-1.8,0-3.5,0-5.3,0
			c-0.9,0-1.4-0.3-1.8-1.1c-3.5-6.2-6.9-12.4-10.4-18.6C40,54.4,39.8,54.1,39.6,53.7z"/>
	</g>
</g>
<g id="Xamarin_10_" transform="translate(542.000000, 55.948280)">
	<g id="Layer_2_11_">
		<path id="Path_30_" class="st0" d="M53.5,13c2.5,0.6,4.1,2.4,5.3,4.6c5.3,9.3,10.6,18.6,16,27.8c1.6,2.8,1.6,5.4,0,8.1
			c-5.6,9.6-11.1,19.2-16.6,28.8c-1.4,2.4-3.4,3.6-6.1,3.5c-11.3,0-22.5,0-33.8,0c-2.7,0-4.8-1.2-6.1-3.5C6.6,72.7,1,63.1-4.5,53.5
			c-1.6-2.8-1.6-5.4,0-8.1c5.5-9.4,11-18.9,16.4-28.4c1.1-2,2.7-3.3,4.9-3.9C29,13,41.2,13,53.5,13z"/>
		<path id="Path_31_" class="st0" d="M25.5,50.4c-3.1,5.4-6.1,10.8-9.1,16.2c-0.7,1.2-0.4,1.7,0.9,1.7c1.7,0,3.3,0,5,0
			c0.7,0,1.1-0.3,1.4-0.9c0.4-0.8,0.9-1.6,1.3-2.4c2.9-5.1,5.7-10.2,8.6-15.4c0.2,0.4,0.4,0.6,0.5,0.8c3.1,5.6,6.3,11.2,9.4,16.8
			c0.4,0.7,0.8,1,1.6,1c1.6-0.1,3.2,0,4.8,0c1.4,0,1.7-0.5,1-1.7c-3-5.4-6-10.8-9.1-16.2c-0.4-0.7-0.4-1.2,0-1.9
			c3.1-5.4,6.1-10.8,9.1-16.3c0.6-1.1,0.3-1.6-0.9-1.6c-1.6,0-3.2,0-4.8,0c-0.8,0-1.3,0.3-1.7,1c-2.4,4.3-4.8,8.6-7.2,12.9
			c-0.9,1.5-1.7,3-2.6,4.6c-0.2-0.4-0.4-0.7-0.5-0.9c-3.1-5.6-6.2-11.1-9.4-16.7c-0.3-0.6-0.7-1-1.5-1c-1.6,0.1-3.2,0-4.8,0
			c-1.5,0-1.8,0.4-1,1.7c3,5.4,6,10.8,9.1,16.2C26,49.2,25.9,49.7,25.5,50.4"/>
		<path id="Path_32_" class="st1" d="M35.1,49.7c-2.9,5.2-5.8,10.3-8.6,15.4c-0.5,0.8-0.9,1.6-1.3,2.4c-0.3,0.6-0.7,0.9-1.4,0.9
			c-1.7-0.1-3.3,0-5,0c-1.3,0-1.6-0.5-0.9-1.7c3-5.4,6-10.8,9.1-16.2c0.4-0.7,0.4-1.2,0-1.9c-3.1-5.4-6-10.8-9.1-16.2
			c-0.7-1.3-0.5-1.7,1-1.7c1.6,0,3.2,0.1,4.8,0c0.8,0,1.2,0.3,1.5,1c3.1,5.6,6.2,11.1,9.4,16.7c0.1,0.3,0.3,0.5,0.5,0.9
			c0.9-1.6,1.8-3.1,2.6-4.6c2.4-4.3,4.9-8.6,7.2-12.9c0.4-0.7,0.9-1,1.7-1c1.6,0.1,3.2,0,4.8,0c1.3,0,1.6,0.5,0.9,1.6
			c-3,5.4-6,10.9-9.1,16.3c-0.4,0.7-0.4,1.2,0,1.9c3.1,5.4,6.1,10.8,9.1,16.2c0.7,1.3,0.4,1.7-1,1.7c-1.6,0-3.2,0-4.8,0
			c-0.8,0-1.2-0.3-1.6-1c-3.1-5.6-6.2-11.2-9.4-16.8C35.5,50.3,35.3,50.1,35.1,49.7z"/>
	</g>
</g>
<g id="Xamarin_14_" transform="translate(660.000000, 318.974121)">
	<g id="Layer_2_15_">
		<path id="Path_42_" class="st0" d="M40.5,13c2,0.5,3.2,1.9,4.1,3.6c4.1,7.3,8.3,14.5,12.5,21.7c1.3,2.2,1.2,4.2,0,6.3
			c-4.4,7.5-8.7,15-13,22.5C43,69,41.5,70,39.3,70c-8.8,0-17.6,0-26.4,0c-2.1,0-3.7-0.9-4.8-2.8c-4.3-7.5-8.6-15.1-13-22.5
			c-1.3-2.2-1.3-4.2,0-6.3c4.3-7.4,8.6-14.8,12.8-22.2c0.9-1.6,2.1-2.6,3.8-3.1C21.3,13,30.9,13,40.5,13z"/>
		<path id="Path_43_" class="st0" d="M18.6,42.2c-2.4,4.2-4.7,8.4-7.1,12.6c-0.5,0.9-0.3,1.3,0.7,1.3c1.3,0,2.6,0,3.9,0
			c0.5,0,0.8-0.2,1.1-0.7c0.3-0.6,0.7-1.2,1-1.9c2.2-4,4.4-7.9,6.7-12c0.2,0.3,0.3,0.5,0.4,0.6c2.5,4.4,4.9,8.7,7.3,13.1
			c0.3,0.5,0.6,0.8,1.3,0.8c1.2,0,2.5,0,3.7,0c1.1,0,1.3-0.4,0.8-1.3c-2.4-4.2-4.7-8.4-7.1-12.6c-0.3-0.5-0.3-0.9,0-1.5
			c2.4-4.2,4.7-8.5,7.1-12.7c0.5-0.9,0.3-1.3-0.7-1.3c-1.2,0-2.5,0-3.7,0c-0.6,0-1,0.2-1.3,0.8c-1.8,3.4-3.7,6.7-5.6,10.1
			c-0.7,1.2-1.3,2.4-2,3.6c-0.2-0.3-0.3-0.5-0.4-0.7c-2.4-4.3-4.9-8.7-7.3-13c-0.3-0.5-0.6-0.8-1.2-0.8c-1.2,0-2.5,0-3.7,0
			c-1.2,0-1.4,0.3-0.8,1.3c2.4,4.2,4.7,8.4,7.1,12.6C19,41.3,18.9,41.7,18.6,42.2"/>
		<path id="Path_44_" class="st1" d="M26.1,41.7c-2.3,4.1-4.5,8-6.7,12c-0.4,0.6-0.7,1.2-1,1.9c-0.2,0.5-0.6,0.7-1.1,0.7
			c-1.3,0-2.6,0-3.9,0c-1,0-1.2-0.4-0.7-1.3c2.4-4.2,4.7-8.4,7.1-12.6c0.3-0.5,0.3-0.9,0-1.5c-2.4-4.2-4.7-8.4-7.1-12.6
			c-0.6-1-0.4-1.3,0.8-1.3c1.2,0,2.5,0,3.7,0c0.6,0,0.9,0.3,1.2,0.8c2.4,4.4,4.9,8.7,7.3,13c0.1,0.2,0.2,0.4,0.4,0.7
			c0.7-1.3,1.4-2.4,2-3.6c1.9-3.4,3.8-6.7,5.6-10.1c0.3-0.6,0.7-0.8,1.3-0.8c1.2,0,2.5,0,3.7,0c1,0,1.2,0.4,0.7,1.3
			c-2.4,4.2-4.7,8.5-7.1,12.7c-0.3,0.5-0.3,0.9,0,1.5c2.4,4.2,4.7,8.4,7.1,12.6c0.6,1,0.3,1.3-0.8,1.3c-1.2,0-2.5,0-3.7,0
			c-0.6,0-1-0.2-1.3-0.8c-2.4-4.4-4.9-8.7-7.3-13.1C26.4,42.1,26.3,42,26.1,41.7z"/>
	</g>
</g>
<g id="Xamarin_18_" transform="translate(799.834961, 88.948280)">
	<g id="Layer_2_19_">
		<path id="Path_54_" class="st0" d="M50.6,13c2.4,0.6,3.9,2.3,5,4.4c5,8.8,10.1,17.7,15.2,26.5c1.5,2.6,1.5,5.1,0,7.7
			C65.5,60.7,60.3,69.9,55,79c-1.3,2.3-3.2,3.4-5.8,3.4c-10.7,0-21.4,0-32.2,0c-2.6,0-4.5-1.1-5.8-3.4C5.9,69.8,0.7,60.7-4.6,51.5
			c-1.5-2.6-1.5-5.1,0-7.7c5.2-9,10.4-18,15.6-27.1c1.1-1.9,2.6-3.2,4.7-3.8C27.3,13,38.9,13,50.6,13z"/>
		<path id="Path_55_" class="st0" d="M24,48.6c-2.9,5.1-5.8,10.3-8.6,15.4c-0.7,1.1-0.4,1.6,0.9,1.6c1.6,0,3.1,0,4.7,0
			c0.7,0,1-0.2,1.3-0.8c0.4-0.8,0.8-1.5,1.2-2.3c2.7-4.8,5.4-9.7,8.2-14.6c0.2,0.4,0.4,0.6,0.5,0.8c3,5.3,6,10.6,8.9,16
			c0.4,0.7,0.8,1,1.5,0.9c1.5-0.1,3,0,4.5,0c1.4,0,1.6-0.4,0.9-1.6c-2.9-5.1-5.7-10.3-8.6-15.4c-0.4-0.7-0.4-1.1,0-1.8
			c2.9-5.1,5.8-10.3,8.7-15.5c0.6-1.1,0.3-1.5-0.9-1.5c-1.5,0-3,0-4.5,0c-0.8,0-1.2,0.2-1.6,0.9c-2.3,4.1-4.6,8.2-6.9,12.3
			c-0.8,1.4-1.6,2.9-2.5,4.4c-0.2-0.4-0.4-0.6-0.5-0.9c-3-5.3-5.9-10.6-8.9-15.9c-0.3-0.6-0.7-1-1.4-0.9c-1.5,0.1-3,0-4.5,0
			c-1.4,0-1.7,0.4-1,1.6c2.9,5.1,5.7,10.3,8.6,15.4C24.4,47.5,24.3,47.9,24,48.6"/>
		<path id="Path_56_" class="st1" d="M33.1,47.9c-2.8,5-5.5,9.8-8.2,14.6c-0.4,0.8-0.9,1.5-1.2,2.3c-0.3,0.6-0.7,0.8-1.3,0.8
			c-1.6-0.1-3.1,0-4.7,0c-1.3,0-1.5-0.5-0.9-1.6c2.9-5.1,5.7-10.3,8.6-15.4c0.4-0.7,0.4-1.1,0-1.8c-2.9-5.1-5.8-10.3-8.6-15.4
			c-0.7-1.2-0.4-1.6,1-1.6c1.5,0,3,0.1,4.5,0c0.8,0,1.1,0.3,1.4,0.9c3,5.3,5.9,10.6,8.9,15.9c0.1,0.2,0.3,0.5,0.5,0.9
			c0.9-1.6,1.7-3,2.5-4.4c2.3-4.1,4.6-8.2,6.9-12.3c0.4-0.7,0.8-1,1.6-0.9c1.5,0.1,3,0,4.5,0c1.2,0,1.5,0.5,0.9,1.5
			c-2.9,5.2-5.8,10.3-8.7,15.5c-0.4,0.7-0.4,1.1,0,1.8c2.9,5.1,5.8,10.3,8.6,15.4c0.7,1.2,0.4,1.6-0.9,1.6c-1.5,0-3,0-4.5,0
			c-0.8,0-1.2-0.3-1.5-0.9c-3-5.3-5.9-10.6-8.9-16C33.5,48.5,33.3,48.3,33.1,47.9z"/>
	</g>
</g>
</svg>
