<?xml version="1.0" encoding="utf-8"?>
<!-- Generator: Adobe Illustrator 22.0.1, SVG Export Plug-In . SVG Version: 6.00 Build 0)  -->
<svg version="1.1" id="Layer_1" xmlns="http://www.w3.org/2000/svg" xmlns:xlink="http://www.w3.org/1999/xlink" x="0px" y="0px"
	 viewBox="0 0 1000 400" style="enable-background:new 0 0 1000 400;" xml:space="preserve">
<style type="text/css">
	.st0{fill:#3796D3;}
	.st1{fill:#FFFFFF;}
</style>
<g id="Xamarin" transform="translate(285.417480, 259.948273)">
	<g id="Layer_2_1_">
		<path id="Path" class="st0" d="M18.9,6c1.1,0.3,1.8,1.1,2.4,2.1c2.4,4.2,4.8,8.4,7.2,12.6c0.7,1.3,0.7,2.4,0,3.7
			c-2.5,4.3-5,8.7-7.5,13c-0.6,1.1-1.5,1.6-2.8,1.6C13.2,39,8.1,39,3,39c-1.2,0-2.2-0.5-2.8-1.6c-2.5-4.4-5-8.7-7.5-13.1
			c-0.7-1.3-0.7-2.4,0-3.7c2.5-4.3,5-8.6,7.4-12.9C0.6,6.9,1.3,6.3,2.3,6C7.8,6,13.4,6,18.9,6z"/>
		<path id="Path_1_" class="st0" d="M6.3,22.9c-1.4,2.4-2.7,4.9-4.1,7.3C1.8,30.8,2,31,2.6,31c0.7,0,1.5,0,2.2,0
			c0.3,0,0.5-0.1,0.6-0.4c0.2-0.4,0.4-0.7,0.6-1.1c1.3-2.3,2.6-4.6,3.9-6.9c0.1,0.2,0.2,0.3,0.2,0.4c1.4,2.5,2.8,5.1,4.2,7.6
			c0.2,0.3,0.4,0.5,0.7,0.4c0.7,0,1.4,0,2.2,0c0.6,0,0.8-0.2,0.4-0.8c-1.4-2.4-2.7-4.9-4.1-7.3c-0.2-0.3-0.2-0.5,0-0.8
			c1.4-2.4,2.7-4.9,4.1-7.4c0.3-0.5,0.2-0.7-0.4-0.7c-0.7,0-1.4,0-2.2,0c-0.4,0-0.6,0.1-0.8,0.4c-1.1,2-2.2,3.9-3.3,5.8
			c-0.4,0.7-0.8,1.4-1.2,2.1c-0.1-0.2-0.2-0.3-0.2-0.4c-1.4-2.5-2.8-5-4.2-7.5c-0.2-0.3-0.3-0.5-0.7-0.4c-0.7,0-1.4,0-2.2,0
			c-0.7,0-0.8,0.2-0.5,0.8c1.4,2.4,2.7,4.9,4.1,7.3C6.5,22.4,6.4,22.6,6.3,22.9"/>
		<path id="Path_2_" class="st1" d="M10.6,22.6C9.3,25,8,27.3,6.7,29.6c-0.2,0.4-0.4,0.7-0.6,1.1C5.9,30.9,5.8,31,5.5,31
			c-0.7,0-1.5,0-2.2,0c-0.6,0-0.7-0.2-0.4-0.8c1.4-2.4,2.7-4.9,4.1-7.3c0.2-0.3,0.2-0.5,0-0.8c-1.4-2.4-2.7-4.9-4.1-7.3
			C2.5,14.2,2.6,14,3.3,14c0.7,0,1.4,0,2.2,0c0.4,0,0.5,0.2,0.7,0.4c1.4,2.5,2.8,5,4.2,7.5c0.1,0.1,0.1,0.2,0.2,0.4
			c0.4-0.7,0.8-1.4,1.2-2.1c1.1-2,2.2-3.9,3.3-5.8c0.2-0.3,0.4-0.5,0.8-0.4c0.7,0,1.4,0,2.2,0c0.6,0,0.7,0.2,0.4,0.7
			c-1.4,2.5-2.7,4.9-4.1,7.4c-0.2,0.3-0.2,0.5,0,0.8c1.4,2.4,2.7,4.9,4.1,7.3c0.3,0.6,0.2,0.8-0.4,0.8c-0.7,0-1.4,0-2.2,0
			c-0.4,0-0.6-0.1-0.7-0.4c-1.4-2.5-2.8-5.1-4.2-7.6C10.8,22.9,10.7,22.8,10.6,22.6z"/>
	</g>
</g>
<g id="Xamarin_4_" transform="translate(72.000000, 100.948280)">
	<g id="Layer_2_5_">
		<path id="Path_12_" class="st0" d="M9.1,6c0.7,0.2,1.2,0.7,1.5,1.3c1.5,2.7,3.1,5.3,4.6,8c0.5,0.8,0.5,1.5,0,2.3
			c-1.6,2.8-3.2,5.5-4.8,8.3c-0.4,0.7-1,1-1.8,1c-3.2,0-6.5,0-9.7,0c-0.8,0-1.4-0.3-1.8-1c-1.6-2.8-3.2-5.6-4.8-8.3
			c-0.5-0.8-0.5-1.5,0-2.3c1.6-2.7,3.2-5.5,4.7-8.2c0.3-0.6,0.8-1,1.4-1.1C2.1,6,5.6,6,9.1,6z"/>
		<path id="Path_13_" class="st0" d="M1.1,16.8c-0.9,1.5-1.7,3.1-2.6,4.7c-0.2,0.3-0.1,0.5,0.3,0.5c0.5,0,1,0,1.4,0
			c0.2,0,0.3-0.1,0.4-0.2c0.1-0.2,0.3-0.5,0.4-0.7c0.8-1.5,1.6-2.9,2.5-4.4c0.1,0.1,0.1,0.2,0.1,0.2c0.9,1.6,1.8,3.2,2.7,4.8
			c0.1,0.2,0.2,0.3,0.5,0.3c0.5,0,0.9,0,1.4,0c0.4,0,0.5-0.1,0.3-0.5c-0.9-1.6-1.7-3.1-2.6-4.7c-0.1-0.2-0.1-0.3,0-0.5
			c0.9-1.6,1.7-3.1,2.6-4.7c0.2-0.3,0.1-0.5-0.3-0.5c-0.5,0-0.9,0-1.4,0c-0.2,0-0.4,0.1-0.5,0.3c-0.7,1.2-1.4,2.5-2.1,3.7
			c-0.2,0.4-0.5,0.9-0.7,1.3c-0.1-0.1-0.1-0.2-0.2-0.3c-0.9-1.6-1.8-3.2-2.7-4.8c-0.1-0.2-0.2-0.3-0.4-0.3c-0.5,0-0.9,0-1.4,0
			c-0.4,0-0.5,0.1-0.3,0.5c0.9,1.6,1.7,3.1,2.6,4.7C1.2,16.4,1.2,16.6,1.1,16.8"/>
		<path id="Path_14_" class="st1" d="M3.8,16.6c-0.8,1.5-1.7,3-2.5,4.4c-0.1,0.2-0.3,0.5-0.4,0.7c-0.1,0.2-0.2,0.2-0.4,0.2
			c-0.5,0-1,0-1.4,0c-0.4,0-0.5-0.1-0.3-0.5c0.9-1.6,1.7-3.1,2.6-4.7c0.1-0.2,0.1-0.3,0-0.5c-0.9-1.5-1.7-3.1-2.6-4.7
			c-0.2-0.4-0.1-0.5,0.3-0.5c0.5,0,0.9,0,1.4,0c0.2,0,0.3,0.1,0.4,0.3c0.9,1.6,1.8,3.2,2.7,4.8c0,0.1,0.1,0.1,0.2,0.3
			c0.3-0.5,0.5-0.9,0.7-1.3c0.7-1.2,1.4-2.5,2.1-3.7c0.1-0.2,0.3-0.3,0.5-0.3c0.5,0,0.9,0,1.4,0c0.4,0,0.5,0.1,0.3,0.5
			c-0.9,1.6-1.7,3.1-2.6,4.7c-0.1,0.2-0.1,0.3,0,0.5c0.9,1.5,1.7,3.1,2.6,4.7c0.2,0.4,0.1,0.5-0.3,0.5c-0.5,0-0.9,0-1.4,0
			c-0.2,0-0.4-0.1-0.5-0.3C5.8,20,4.9,18.4,4,16.8C3.9,16.7,3.9,16.7,3.8,16.6z"/>
	</g>
</g>
<g id="Xamarin_11_" transform="translate(716.000000, 246.948273)">
	<g id="Layer_2_12_">
		<path id="Path_33_" class="st0" d="M18.9,6c1.1,0.3,1.8,1.1,2.4,2.1c2.4,4.2,4.8,8.4,7.2,12.6c0.7,1.3,0.7,2.4,0,3.7
			c-2.5,4.3-5,8.7-7.5,13c-0.6,1.1-1.5,1.6-2.8,1.6C13.2,39,8.1,39,3,39c-1.2,0-2.2-0.5-2.8-1.6c-2.5-4.4-5-8.7-7.5-13.1
			c-0.7-1.3-0.7-2.4,0-3.7c2.5-4.3,5-8.6,7.4-12.9C0.6,6.9,1.3,6.3,2.3,6C7.8,6,13.4,6,18.9,6z"/>
		<path id="Path_34_" class="st0" d="M6.3,22.9c-1.4,2.4-2.7,4.9-4.1,7.3C1.8,30.8,2,31,2.6,31c0.7,0,1.5,0,2.2,0
			c0.3,0,0.5-0.1,0.6-0.4c0.2-0.4,0.4-0.7,0.6-1.1c1.3-2.3,2.6-4.6,3.9-6.9c0.1,0.2,0.2,0.3,0.2,0.4c1.4,2.5,2.8,5.1,4.2,7.6
			c0.2,0.3,0.4,0.5,0.7,0.4c0.7,0,1.4,0,2.2,0c0.6,0,0.8-0.2,0.4-0.8c-1.4-2.4-2.7-4.9-4.1-7.3c-0.2-0.3-0.2-0.5,0-0.8
			c1.4-2.4,2.7-4.9,4.1-7.4c0.3-0.5,0.2-0.7-0.4-0.7c-0.7,0-1.4,0-2.2,0c-0.4,0-0.6,0.1-0.8,0.4c-1.1,2-2.2,3.9-3.3,5.8
			c-0.4,0.7-0.8,1.4-1.2,2.1c-0.1-0.2-0.2-0.3-0.2-0.4c-1.4-2.5-2.8-5-4.2-7.5c-0.2-0.3-0.3-0.5-0.7-0.4c-0.7,0-1.4,0-2.2,0
			c-0.7,0-0.8,0.2-0.5,0.8c1.4,2.4,2.7,4.9,4.1,7.3C6.5,22.4,6.4,22.6,6.3,22.9"/>
		<path id="Path_35_" class="st1" d="M10.6,22.6C9.3,25,8,27.3,6.7,29.6c-0.2,0.4-0.4,0.7-0.6,1.1C5.9,30.9,5.8,31,5.5,31
			c-0.7,0-1.5,0-2.2,0c-0.6,0-0.7-0.2-0.4-0.8c1.4-2.4,2.7-4.9,4.1-7.3c0.2-0.3,0.2-0.5,0-0.8c-1.4-2.4-2.7-4.9-4.1-7.3
			C2.5,14.2,2.6,14,3.3,14c0.7,0,1.4,0,2.2,0c0.4,0,0.5,0.2,0.7,0.4c1.4,2.5,2.8,5,4.2,7.5c0.1,0.1,0.1,0.2,0.2,0.4
			c0.4-0.7,0.8-1.4,1.2-2.1c1.1-2,2.2-3.9,3.3-5.8c0.2-0.3,0.4-0.5,0.8-0.4c0.7,0,1.4,0,2.2,0c0.6,0,0.7,0.2,0.4,0.7
			c-1.4,2.5-2.7,4.9-4.1,7.4c-0.2,0.3-0.2,0.5,0,0.8c1.4,2.4,2.7,4.9,4.1,7.3c0.3,0.6,0.2,0.8-0.4,0.8c-0.7,0-1.4,0-2.2,0
			c-0.4,0-0.6-0.1-0.7-0.4c-1.4-2.5-2.8-5.1-4.2-7.6C10.8,22.9,10.7,22.8,10.6,22.6z"/>
	</g>
</g>
<g id="Xamarin_13_" transform="translate(818.000000, 292.948273)">
	<g id="Layer_2_14_">
		<path id="Path_39_" class="st0" d="M18.9,6c1.1,0.3,1.8,1.1,2.4,2.1c2.4,4.2,4.8,8.4,7.2,12.6c0.7,1.3,0.7,2.4,0,3.7
			c-2.5,4.3-5,8.7-7.5,13c-0.6,1.1-1.5,1.6-2.8,1.6C13.2,39,8.1,39,3,39c-1.2,0-2.2-0.5-2.8-1.6c-2.5-4.4-5-8.7-7.5-13.1
			c-0.7-1.3-0.7-2.4,0-3.7c2.5-4.3,5-8.6,7.4-12.9C0.6,6.9,1.3,6.3,2.3,6C7.8,6,13.4,6,18.9,6z"/>
		<path id="Path_40_" class="st0" d="M6.3,22.9c-1.4,2.4-2.7,4.9-4.1,7.3C1.8,30.8,2,31,2.6,31c0.7,0,1.5,0,2.2,0
			c0.3,0,0.5-0.1,0.6-0.4c0.2-0.4,0.4-0.7,0.6-1.1c1.3-2.3,2.6-4.6,3.9-6.9c0.1,0.2,0.2,0.3,0.2,0.4c1.4,2.5,2.8,5.1,4.2,7.6
			c0.2,0.3,0.4,0.5,0.7,0.4c0.7,0,1.4,0,2.2,0c0.6,0,0.8-0.2,0.4-0.8c-1.4-2.4-2.7-4.9-4.1-7.3c-0.2-0.3-0.2-0.5,0-0.8
			c1.4-2.4,2.7-4.9,4.1-7.4c0.3-0.5,0.2-0.7-0.4-0.7c-0.7,0-1.4,0-2.2,0c-0.4,0-0.6,0.1-0.8,0.4c-1.1,2-2.2,3.9-3.3,5.8
			c-0.4,0.7-0.8,1.4-1.2,2.1c-0.1-0.2-0.2-0.3-0.2-0.4c-1.4-2.5-2.8-5-4.2-7.5c-0.2-0.3-0.3-0.5-0.7-0.4c-0.7,0-1.4,0-2.2,0
			c-0.7,0-0.8,0.2-0.5,0.8c1.4,2.4,2.7,4.9,4.1,7.3C6.5,22.4,6.4,22.6,6.3,22.9"/>
		<path id="Path_41_" class="st1" d="M10.6,22.6C9.3,25,8,27.3,6.7,29.6c-0.2,0.4-0.4,0.7-0.6,1.1C5.9,30.9,5.8,31,5.5,31
			c-0.7,0-1.5,0-2.2,0c-0.6,0-0.7-0.2-0.4-0.8c1.4-2.4,2.7-4.9,4.1-7.3c0.2-0.3,0.2-0.5,0-0.8c-1.4-2.4-2.7-4.9-4.1-7.3
			C2.5,14.2,2.6,14,3.3,14c0.7,0,1.4,0,2.2,0c0.4,0,0.5,0.2,0.7,0.4c1.4,2.5,2.8,5,4.2,7.5c0.1,0.1,0.1,0.2,0.2,0.4
			c0.4-0.7,0.8-1.4,1.2-2.1c1.1-2,2.2-3.9,3.3-5.8c0.2-0.3,0.4-0.5,0.8-0.4c0.7,0,1.4,0,2.2,0c0.6,0,0.7,0.2,0.4,0.7
			c-1.4,2.5-2.7,4.9-4.1,7.4c-0.2,0.3-0.2,0.5,0,0.8c1.4,2.4,2.7,4.9,4.1,7.3c0.3,0.6,0.2,0.8-0.4,0.8c-0.7,0-1.4,0-2.2,0
			c-0.4,0-0.6-0.1-0.7-0.4c-1.4-2.5-2.8-5.1-4.2-7.6C10.8,22.9,10.7,22.8,10.6,22.6z"/>
	</g>
</g>
<g id="Xamarin_21_" transform="translate(902.000000, 84.948280)">
	<g id="Layer_2_22_">
		<path id="Path_63_" class="st0" d="M18.9,6c1.1,0.3,1.8,1.1,2.4,2.1c2.4,4.2,4.8,8.4,7.2,12.6c0.7,1.3,0.7,2.4,0,3.7
			c-2.5,4.3-5,8.7-7.5,13c-0.6,1.1-1.5,1.6-2.8,1.6C13.2,39,8.1,39,3,39c-1.2,0-2.2-0.5-2.8-1.6c-2.5-4.4-5-8.7-7.5-13.1
			c-0.7-1.3-0.7-2.4,0-3.7c2.5-4.3,5-8.6,7.4-12.9C0.6,6.9,1.3,6.3,2.3,6C7.8,6,13.4,6,18.9,6z"/>
		<path id="Path_64_" class="st0" d="M6.3,22.9c-1.4,2.4-2.7,4.9-4.1,7.3C1.8,30.8,2,31,2.6,31c0.7,0,1.5,0,2.2,0
			c0.3,0,0.5-0.1,0.6-0.4c0.2-0.4,0.4-0.7,0.6-1.1c1.3-2.3,2.6-4.6,3.9-6.9c0.1,0.2,0.2,0.3,0.2,0.4c1.4,2.5,2.8,5.1,4.2,7.6
			c0.2,0.3,0.4,0.5,0.7,0.4c0.7,0,1.4,0,2.2,0c0.6,0,0.8-0.2,0.4-0.8c-1.4-2.4-2.7-4.9-4.1-7.3c-0.2-0.3-0.2-0.5,0-0.8
			c1.4-2.4,2.7-4.9,4.1-7.4c0.3-0.5,0.2-0.7-0.4-0.7c-0.7,0-1.4,0-2.2,0c-0.4,0-0.6,0.1-0.8,0.4c-1.1,2-2.2,3.9-3.3,5.8
			c-0.4,0.7-0.8,1.4-1.2,2.1c-0.1-0.2-0.2-0.3-0.2-0.4c-1.4-2.5-2.8-5-4.2-7.5c-0.2-0.3-0.3-0.5-0.7-0.4c-0.7,0-1.4,0-2.2,0
			c-0.7,0-0.8,0.2-0.5,0.8c1.4,2.4,2.7,4.9,4.1,7.3C6.5,22.4,6.4,22.6,6.3,22.9"/>
		<path id="Path_65_" class="st1" d="M10.6,22.6C9.3,25,8,27.3,6.7,29.6c-0.2,0.4-0.4,0.7-0.6,1.1C5.9,30.9,5.8,31,5.5,31
			c-0.7,0-1.5,0-2.2,0c-0.6,0-0.7-0.2-0.4-0.8c1.4-2.4,2.7-4.9,4.1-7.3c0.2-0.3,0.2-0.5,0-0.8c-1.4-2.4-2.7-4.9-4.1-7.3
			C2.5,14.2,2.6,14,3.3,14c0.7,0,1.4,0,2.2,0c0.4,0,0.5,0.2,0.7,0.4c1.4,2.5,2.8,5,4.2,7.5c0.1,0.1,0.1,0.2,0.2,0.4
			c0.4-0.7,0.8-1.4,1.2-2.1c1.1-2,2.2-3.9,3.3-5.8c0.2-0.3,0.4-0.5,0.8-0.4c0.7,0,1.4,0,2.2,0c0.6,0,0.7,0.2,0.4,0.7
			c-1.4,2.5-2.7,4.9-4.1,7.4c-0.2,0.3-0.2,0.5,0,0.8c1.4,2.4,2.7,4.9,4.1,7.3c0.3,0.6,0.2,0.8-0.4,0.8c-0.7,0-1.4,0-2.2,0
			c-0.4,0-0.6-0.1-0.7-0.4c-1.4-2.5-2.8-5.1-4.2-7.6C10.8,22.9,10.7,22.8,10.6,22.6z"/>
	</g>
</g>
<g id="Xamarin_23_" transform="translate(942.000000, 145.948273)">
	<g id="Layer_2_24_">
		<path id="Path_69_" class="st0" d="M18.9,6c1.1,0.3,1.8,1.1,2.4,2.1c2.4,4.2,4.8,8.4,7.2,12.6c0.7,1.3,0.7,2.4,0,3.7
			c-2.5,4.3-5,8.7-7.5,13c-0.6,1.1-1.5,1.6-2.8,1.6C13.2,39,8.1,39,3,39c-1.2,0-2.2-0.5-2.8-1.6c-2.5-4.4-5-8.7-7.5-13.1
			c-0.7-1.3-0.7-2.4,0-3.7c2.5-4.3,5-8.6,7.4-12.9C0.6,6.9,1.3,6.3,2.3,6C7.8,6,13.4,6,18.9,6z"/>
		<path id="Path_70_" class="st0" d="M6.3,22.9c-1.4,2.4-2.7,4.9-4.1,7.3C1.8,30.8,2,31,2.6,31c0.7,0,1.5,0,2.2,0
			c0.3,0,0.5-0.1,0.6-0.4c0.2-0.4,0.4-0.7,0.6-1.1c1.3-2.3,2.6-4.6,3.9-6.9c0.1,0.2,0.2,0.3,0.2,0.4c1.4,2.5,2.8,5.1,4.2,7.6
			c0.2,0.3,0.4,0.5,0.7,0.4c0.7,0,1.4,0,2.2,0c0.6,0,0.8-0.2,0.4-0.8c-1.4-2.4-2.7-4.9-4.1-7.3c-0.2-0.3-0.2-0.5,0-0.8
			c1.4-2.4,2.7-4.9,4.1-7.4c0.3-0.5,0.2-0.7-0.4-0.7c-0.7,0-1.4,0-2.2,0c-0.4,0-0.6,0.1-0.8,0.4c-1.1,2-2.2,3.9-3.3,5.8
			c-0.4,0.7-0.8,1.4-1.2,2.1c-0.1-0.2-0.2-0.3-0.2-0.4c-1.4-2.5-2.8-5-4.2-7.5c-0.2-0.3-0.3-0.5-0.7-0.4c-0.7,0-1.4,0-2.2,0
			c-0.7,0-0.8,0.2-0.5,0.8c1.4,2.4,2.7,4.9,4.1,7.3C6.5,22.4,6.4,22.6,6.3,22.9"/>
		<path id="Path_71_" class="st1" d="M10.6,22.6C9.3,25,8,27.3,6.7,29.6c-0.2,0.4-0.4,0.7-0.6,1.1C5.9,30.9,5.8,31,5.5,31
			c-0.7,0-1.5,0-2.2,0c-0.6,0-0.7-0.2-0.4-0.8c1.4-2.4,2.7-4.9,4.1-7.3c0.2-0.3,0.2-0.5,0-0.8c-1.4-2.4-2.7-4.9-4.1-7.3
			C2.5,14.2,2.6,14,3.3,14c0.7,0,1.4,0,2.2,0c0.4,0,0.5,0.2,0.7,0.4c1.4,2.5,2.8,5,4.2,7.5c0.1,0.1,0.1,0.2,0.2,0.4
			c0.4-0.7,0.8-1.4,1.2-2.1c1.1-2,2.2-3.9,3.3-5.8c0.2-0.3,0.4-0.5,0.8-0.4c0.7,0,1.4,0,2.2,0c0.6,0,0.7,0.2,0.4,0.7
			c-1.4,2.5-2.7,4.9-4.1,7.4c-0.2,0.3-0.2,0.5,0,0.8c1.4,2.4,2.7,4.9,4.1,7.3c0.3,0.6,0.2,0.8-0.4,0.8c-0.7,0-1.4,0-2.2,0
			c-0.4,0-0.6-0.1-0.7-0.4c-1.4-2.5-2.8-5.1-4.2-7.6C10.8,22.9,10.7,22.8,10.6,22.6z"/>
	</g>
</g>
<g id="Xamarin_24_" transform="translate(133.074951, 55.948280)">
	<g id="Layer_2_25_">
		<g id="Path_72_">
			<path class="st0" d="M10.9,6c0.8,0.2,1.3,0.8,1.7,1.5c1.7,3,3.4,5.9,5.1,8.9c0.5,0.9,0.5,1.7,0,2.6c-1.8,3.1-3.5,6.1-5.3,9.2
				c-0.4,0.8-1.1,1.1-2,1.1c-3.6,0-7.2,0-10.8,0c-0.9,0-1.5-0.4-2-1.1C-4.1,25-5.8,22-7.6,18.9c-0.5-0.9-0.5-1.7,0-2.6
				c1.8-3,3.5-6,5.2-9.1C-2,6.6-1.5,6.2-0.8,6C3.1,6,7,6,10.9,6z"/>
		</g>
		<path id="Path_73_" class="st0" d="M2,17.9c-1,1.7-1.9,3.4-2.9,5.2c-0.2,0.4-0.1,0.5,0.3,0.5c0.5,0,1.1,0,1.6,0
			c0.2,0,0.3-0.1,0.4-0.3c0.1-0.3,0.3-0.5,0.4-0.8c0.9-1.6,1.8-3.2,2.7-4.9c0.1,0.1,0.1,0.2,0.2,0.3c1,1.8,2,3.6,3,5.3
			c0.1,0.2,0.3,0.3,0.5,0.3c0.5,0,1,0,1.5,0c0.5,0,0.5-0.1,0.3-0.5c-1-1.7-1.9-3.4-2.9-5.2c-0.1-0.2-0.1-0.4,0-0.6
			c1-1.7,1.9-3.5,2.9-5.2c0.2-0.4,0.1-0.5-0.3-0.5c-0.5,0-1,0-1.5,0c-0.3,0-0.4,0.1-0.5,0.3C7,13.3,6.2,14.7,5.4,16
			c-0.3,0.5-0.5,1-0.8,1.5c-0.1-0.1-0.1-0.2-0.2-0.3c-1-1.8-2-3.5-3-5.3c-0.1-0.2-0.2-0.3-0.5-0.3c-0.5,0-1,0-1.5,0
			c-0.5,0-0.6,0.1-0.3,0.5c1,1.7,1.9,3.4,2.9,5.2C2.1,17.5,2.1,17.7,2,17.9"/>
		<path id="Path_74_" class="st1" d="M5,17.7c-0.9,1.7-1.8,3.3-2.7,4.9c-0.1,0.3-0.3,0.5-0.4,0.8c-0.1,0.2-0.2,0.3-0.4,0.3
			c-0.5,0-1.1,0-1.6,0c-0.4,0-0.5-0.2-0.3-0.5c1-1.7,1.9-3.4,2.9-5.2c0.1-0.2,0.1-0.4,0-0.6c-1-1.7-1.9-3.4-2.9-5.2
			c-0.2-0.4-0.1-0.5,0.3-0.5c0.5,0,1,0,1.5,0c0.3,0,0.4,0.1,0.5,0.3c1,1.8,2,3.5,3,5.3c0,0.1,0.1,0.2,0.2,0.3c0.3-0.5,0.6-1,0.8-1.5
			c0.8-1.4,1.5-2.7,2.3-4.1c0.1-0.2,0.3-0.3,0.5-0.3c0.5,0,1,0,1.5,0c0.4,0,0.5,0.2,0.3,0.5c-1,1.7-1.9,3.5-2.9,5.2
			c-0.1,0.2-0.1,0.4,0,0.6c1,1.7,1.9,3.4,2.9,5.2c0.2,0.4,0.1,0.5-0.3,0.5c-0.5,0-1,0-1.5,0c-0.3,0-0.4-0.1-0.5-0.3
			c-1-1.8-2-3.6-3-5.3C5.1,17.9,5.1,17.8,5,17.7z"/>
	</g>
</g>
</svg>
