<svg xmlns="http://www.w3.org/2000/svg" width="98.741" height="67" viewBox="0 0 98.741 67">
  <g id="Logo-small" transform="translate(-0.001 0)">
    <g id="Layer_3">
      <path id="Path" d="M1.541,34.947H48.456c.851,0,1.543-1.458,1.543-3.288V3.288C50,1.485,49.307.027,48.483,0L7.366.053c-.612,0-1.2.769-1.436,1.989L.132,30.36C-.32,32.534.451,34.947,1.541,34.947Z" transform="translate(0.001)" fill="#2c97dd"/>
    </g>
    <g id="Layer_5" transform="translate(47 32)">
      <path id="Path-2" data-name="Path" d="M45.329,34.867H1c-.552,0-1-1.061-1-2.36V2.36C0,1.061.446,0,1,0H50.739c.709,0,1.208,1.723.919,3.288l-5.41,30.121C46.091,34.284,45.723,34.867,45.329,34.867Z" transform="translate(0 0.133)" fill="#2c97dd"/>
    </g>
    <g id="Layer_2_1_" transform="translate(12)">
      <path id="Path-3" data-name="Path" d="M54.8,0c2.349.578,3.747,2.181,4.908,4.23q7.323,12.809,14.8,25.539a6.783,6.783,0,0,1,0,7.462c-5.172,8.8-10.265,17.656-15.385,26.485a6.084,6.084,0,0,1-5.674,3.258H22.186a6.131,6.131,0,0,1-5.674-3.258C11.393,54.887,6.3,46.033,1.128,37.231a6.734,6.734,0,0,1,0-7.462Q8.768,16.763,16.275,3.652A7.426,7.426,0,0,1,20.841,0Z" transform="translate(0.139 0)" fill="#2c97dd"/>
      <path id="Path-4" data-name="Path" d="M8.731,18.21Q4.5,25.619.339,33.081c-.633,1.1-.4,1.55.844,1.55,1.531,0,3.061-.026,4.592.026a1.263,1.263,0,0,0,1.293-.788c.369-.736.818-1.445,1.214-2.181,2.639-4.651,5.251-9.327,7.969-14.109.211.342.343.552.475.762q4.354,7.685,8.682,15.423a1.453,1.453,0,0,0,1.5.893c1.478-.053,2.956,0,4.407-.026,1.319,0,1.557-.42.9-1.576-2.8-4.966-5.568-9.932-8.392-14.871a1.5,1.5,0,0,1,0-1.708c2.824-4.966,5.621-9.958,8.444-14.95C32.85.474,32.587.054,31.4.054c-1.478,0-2.956.026-4.407-.026a1.564,1.564,0,0,0-1.583.893c-2.19,3.967-4.433,7.935-6.676,11.876-.792,1.393-1.583,2.785-2.4,4.256-.211-.368-.369-.6-.5-.841C12.953,11.116,10.05,5.992,7.174.895A1.406,1.406,0,0,0,5.775,0C4.3.054,2.82.028,1.369.028-.03.028-.268.422.419,1.6c2.8,4.966,5.568,9.932,8.392,14.871a1.64,1.64,0,0,1-.079,1.734" transform="translate(21.669 16.131)" fill="#2c97dd"/>
      <path id="Path-5" data-name="Path" d="M16.252,17.553c-2.718,4.808-5.331,9.459-7.969,14.109-.422.736-.844,1.445-1.214,2.181a1.3,1.3,0,0,1-1.293.788c-1.531-.053-3.061,0-4.592-.026-1.24,0-1.478-.447-.844-1.55,2.8-4.966,5.568-9.932,8.392-14.871a1.5,1.5,0,0,0,.026-1.708C5.934,11.536,3.163,6.57.366,1.6-.294.422-.056.028,1.316.028,2.794.028,4.271.08,5.723,0a1.384,1.384,0,0,1,1.4.893q4.315,7.685,8.656,15.318c.132.236.29.473.5.841.844-1.5,1.636-2.864,2.4-4.256C20.923,8.83,23.166,4.888,25.356.921A1.508,1.508,0,0,1,26.939.028c1.478.053,2.956,0,4.407.026,1.214,0,1.478.447.871,1.471-2.8,4.992-5.594,9.984-8.444,14.95a1.454,1.454,0,0,0,0,1.708q4.235,7.409,8.392,14.871c.66,1.156.4,1.576-.9,1.576-1.478,0-2.956-.026-4.407.026a1.5,1.5,0,0,1-1.5-.893c-2.876-5.15-5.779-10.273-8.682-15.423A2.922,2.922,0,0,0,16.252,17.553Z" transform="translate(21.669 16.157)" fill="#fdfdfe"/>
    </g>
    <g id="Layer_4" transform="translate(12 7)">
      <path id="Shape" d="M4.63,21.719H0V.511C.941.358,2,.23,3.138.128,4.13.039,5.195,0,6.591,0a23.25,23.25,0,0,1,3.531.256A9.447,9.447,0,0,1,13.339,1.3a6.441,6.441,0,0,1,2.327,2.174,6.67,6.67,0,0,1,.915,3.684,7.082,7.082,0,0,1-.785,3.453,6.378,6.378,0,0,1-2.093,2.3,9.337,9.337,0,0,1-2.955,1.3,13.755,13.755,0,0,1-3.4.409H6.827c-.258,0-.524,0-.811-.025a8,8,0,0,1-.811-.051l-.223-.023c-.147-.016-.262-.028-.352-.028v7.213ZM6.879,3.965c-.444,0-.863,0-1.255.025a4.781,4.781,0,0,0-.994.128v6.37a1.41,1.41,0,0,0,.418.051c.094.013.194.019.3.026s.2.012.3.025.209.007.307.014.18.012.268.012c.1,0,.191.008.267.015.057.005.106.01.151.01a14.106,14.106,0,0,0,1.8-.128A4.6,4.6,0,0,0,10.069,10,3.48,3.48,0,0,0,11.22,8.928a3.453,3.453,0,0,0,.445-1.842A2.651,2.651,0,0,0,11.246,5.5a2.472,2.472,0,0,0-1.073-.921,4.691,4.691,0,0,0-1.543-.461A8.252,8.252,0,0,0,6.879,3.965Z" transform="translate(0.209 0.179)" fill="#fff"/>
    </g>
    <g id="Layer_6" transform="translate(75 37)">
      <path id="Path-6" data-name="Path" d="M0,0H13.75V4.23H4.525V9.517h8.5v4.23h-8.5v8.989H.025V0Z" transform="translate(0.05 0.106)" fill="#fff"/>
    </g>
  </g>
</svg>
